<mxfile host="app.diagrams.net" modified="2023-11-05T08:02:00.105Z" agent="Mozilla/5.0 (X11; Linux x86_64) AppleWebKit/537.36 (KHTML, like Gecko) Chrome/118.0.0.0 Safari/537.36" etag="505Qj_cTIweDFBikwFQ8" version="22.0.8" type="device">
  <diagram id="wLx2nraHEfDCj9btGWHz" name="Page-1">
    <mxGraphModel dx="1433" dy="785" grid="1" gridSize="10" guides="1" tooltips="1" connect="1" arrows="1" fold="1" page="1" pageScale="1" pageWidth="827" pageHeight="1169" math="0" shadow="0">
      <root>
        <mxCell id="0" />
        <mxCell id="1" parent="0" />
        <mxCell id="hk00Rdq8uAhm8ICl378K-108" style="edgeStyle=none;rounded=0;orthogonalLoop=1;jettySize=auto;html=1;exitX=0;exitY=0.5;exitDx=0;exitDy=0;entryX=1;entryY=0.5;entryDx=0;entryDy=0;endArrow=none;endFill=0;" parent="1" source="hk00Rdq8uAhm8ICl378K-7" target="hk00Rdq8uAhm8ICl378K-41" edge="1">
          <mxGeometry relative="1" as="geometry" />
        </mxCell>
        <mxCell id="hk00Rdq8uAhm8ICl378K-109" style="edgeStyle=none;rounded=0;orthogonalLoop=1;jettySize=auto;html=1;exitX=0;exitY=0.5;exitDx=0;exitDy=0;endArrow=none;endFill=0;" parent="1" source="hk00Rdq8uAhm8ICl378K-7" target="hk00Rdq8uAhm8ICl378K-42" edge="1">
          <mxGeometry relative="1" as="geometry" />
        </mxCell>
        <mxCell id="hk00Rdq8uAhm8ICl378K-110" style="edgeStyle=none;rounded=0;orthogonalLoop=1;jettySize=auto;html=1;endArrow=none;endFill=0;" parent="1" source="hk00Rdq8uAhm8ICl378K-7" target="hk00Rdq8uAhm8ICl378K-43" edge="1">
          <mxGeometry relative="1" as="geometry" />
        </mxCell>
        <mxCell id="hk00Rdq8uAhm8ICl378K-111" style="edgeStyle=none;rounded=0;orthogonalLoop=1;jettySize=auto;html=1;endArrow=none;endFill=0;" parent="1" source="hk00Rdq8uAhm8ICl378K-7" target="hk00Rdq8uAhm8ICl378K-44" edge="1">
          <mxGeometry relative="1" as="geometry" />
        </mxCell>
        <mxCell id="hk00Rdq8uAhm8ICl378K-7" value="User" style="rounded=0;whiteSpace=wrap;html=1;" parent="1" vertex="1">
          <mxGeometry x="172" y="967" width="80" height="40" as="geometry" />
        </mxCell>
        <mxCell id="hk00Rdq8uAhm8ICl378K-40" value="&lt;u&gt;id&lt;/u&gt;" style="ellipse;whiteSpace=wrap;html=1;" parent="1" vertex="1">
          <mxGeometry x="63" y="910" width="70" height="30" as="geometry" />
        </mxCell>
        <mxCell id="hk00Rdq8uAhm8ICl378K-41" value="first_name" style="ellipse;whiteSpace=wrap;html=1;" parent="1" vertex="1">
          <mxGeometry x="53" y="934" width="70" height="30" as="geometry" />
        </mxCell>
        <mxCell id="hk00Rdq8uAhm8ICl378K-42" value="last_name" style="ellipse;whiteSpace=wrap;html=1;" parent="1" vertex="1">
          <mxGeometry x="48" y="958" width="70" height="30" as="geometry" />
        </mxCell>
        <mxCell id="hk00Rdq8uAhm8ICl378K-43" value="username" style="ellipse;whiteSpace=wrap;html=1;" parent="1" vertex="1">
          <mxGeometry x="38" y="985" width="70" height="30" as="geometry" />
        </mxCell>
        <mxCell id="hk00Rdq8uAhm8ICl378K-44" value="email" style="ellipse;whiteSpace=wrap;html=1;" parent="1" vertex="1">
          <mxGeometry x="38" y="1007" width="70" height="30" as="geometry" />
        </mxCell>
        <mxCell id="hk00Rdq8uAhm8ICl378K-45" value="password" style="ellipse;whiteSpace=wrap;html=1;" parent="1" vertex="1">
          <mxGeometry x="48" y="1033" width="70" height="30" as="geometry" />
        </mxCell>
        <mxCell id="hk00Rdq8uAhm8ICl378K-107" style="edgeStyle=none;rounded=0;orthogonalLoop=1;jettySize=auto;html=1;exitX=0;exitY=0.5;exitDx=0;exitDy=0;entryX=1;entryY=0.783;entryDx=0;entryDy=0;entryPerimeter=0;endArrow=none;endFill=0;" parent="1" source="hk00Rdq8uAhm8ICl378K-7" target="hk00Rdq8uAhm8ICl378K-40" edge="1">
          <mxGeometry relative="1" as="geometry" />
        </mxCell>
        <mxCell id="hk00Rdq8uAhm8ICl378K-112" style="edgeStyle=none;rounded=0;orthogonalLoop=1;jettySize=auto;html=1;entryX=0.971;entryY=0.283;entryDx=0;entryDy=0;entryPerimeter=0;endArrow=none;endFill=0;" parent="1" source="hk00Rdq8uAhm8ICl378K-7" target="hk00Rdq8uAhm8ICl378K-45" edge="1">
          <mxGeometry relative="1" as="geometry" />
        </mxCell>
        <UserObject label="" plantUmlData="{&quot;data&quot;:&quot;@startuml\n\nclass Division {\n  id\n  name\n}\n\nclass District {\n  id\n  division\n  name\n  charge\n}\n\nclass Area {\n  id\n  district\n  name\n  charge\n}\n\nclass User {\n  id\n  first_name\n  last_name\n  email\n  username\n}\n\nclass Customer {\n  id\n  user\n  name\n  email\n  phone\n  address\n}\n\nclass Seller {\n  id\n  user\n  phone\n  shop\n  website\n  address\n  area\n  bkash\n}\n\nclass Parcel {\n  id\n  hub\n  rider\n  category\n  description\n  seller\n  customer\n  weight\n  area\n  address\n  status\n  product_price\n  cod\n  charge\n  cash\n  created_at\n  phone\n  name\n}\n\nclass ParcelLog {\n  id\n  parcel\n  title\n  description\n  created_at\n}\n\nclass Staff {\n  id\n  user\n  area\n  name\n  email\n  phone\n  type\n}\n\nclass Otp {\n  id\n  otp\n  phone\n  created_at\n  valid_till\n}\n\nDivision \&quot;1\&quot; -- \&quot;N\&quot; District\nDistrict \&quot;1\&quot; -- \&quot;N\&quot; Area\nUser \&quot;1\&quot; -- \&quot;1\&quot; Customer\nUser \&quot;1\&quot; -- \&quot;1\&quot; Seller\nArea \&quot;1\&quot; -- \&quot;N\&quot; Seller\nArea \&quot;1\&quot; -- \&quot;N\&quot; Parcel\nUser \&quot;1\&quot; -- \&quot;1\&quot; Staff\nUser \&quot;1\&quot; -- \&quot;1\&quot; Staff\nParcel \&quot;1\&quot; -- \&quot;N\&quot; ParcelLog\nUser \&quot;1\&quot; -- \&quot;N\&quot; Otp\n\n@enduml\n&quot;,&quot;format&quot;:&quot;svg&quot;}" id="5jvego66JOtNKPKq_Y0C-1">
          <mxCell style="shape=image;noLabel=1;verticalAlign=top;aspect=fixed;imageAspect=0;image=data:image/svg+xml,PD94bWwgdmVyc2lvbj0iMS4wIiBlbmNvZGluZz0idXMtYXNjaWkiIHN0YW5kYWxvbmU9Im5vIj8+PHN2ZyB4bWxucz0iaHR0cDovL3d3dy53My5vcmcvMjAwMC9zdmciIHhtbG5zOnhsaW5rPSJodHRwOi8vd3d3LnczLm9yZy8xOTk5L3hsaW5rIiBjb250ZW50U3R5bGVUeXBlPSJ0ZXh0L2NzcyIgaGVpZ2h0PSIxMDAzcHgiIHByZXNlcnZlQXNwZWN0UmF0aW89Im5vbmUiIHN0eWxlPSJ3aWR0aDo1NzBweDtoZWlnaHQ6MTAwM3B4O2JhY2tncm91bmQ6I0ZGRkZGRjsiIHZlcnNpb249IjEuMSIgdmlld0JveD0iMCAwIDU3MCAxMDAzIiB3aWR0aD0iNTcwcHgiIHpvb21BbmRQYW49Im1hZ25pZnkiPjxkZWZzLz48Zz48IS0tY2xhc3MgRGl2aXNpb24tLT48ZyBpZD0iZWxlbV9EaXZpc2lvbiI+PHJlY3QgY29kZUxpbmU9IjEiIGZpbGw9IiNGMUYxRjEiIGhlaWdodD0iNzcuOTY4OCIgaWQ9IkRpdmlzaW9uIiByeD0iMi41IiByeT0iMi41IiBzdHlsZT0ic3Ryb2tlOiMxODE4MTg7c3Ryb2tlLXdpZHRoOjAuNTsiIHdpZHRoPSI4OCIgeD0iNzYuNSIgeT0iNyIvPjxlbGxpcHNlIGN4PSI5MS41IiBjeT0iMjMiIGZpbGw9IiNBREQxQjIiIHJ4PSIxMSIgcnk9IjExIiBzdHlsZT0ic3Ryb2tlOiMxODE4MTg7c3Ryb2tlLXdpZHRoOjEuMDsiLz48cGF0aCBkPSJNODkuMTI1LDI3LjI1IEw4OS4xMjUsMjkgTDk0LjA2MjUsMjkgTDk0LjA2MjUsMjcuMjUgTDg5LjEyNSwyNy4yNSBaIE04OS44MTI1LDI3LjkzNzUgUTg5LjgxMjUsMjcuOTM3NSA4OS44MTI1LDE4Ljc1IEw4OC4wNjI1LDE4Ljc1IFE4OC4wNjI1LDE4Ljc1IDg4LjA2MjUsMjcuOTM3NSBMODkuODEyNSwyNy45Mzc1IFogTTkzLjM3NSwyNy45Mzc1IEw5NS4xMjUsMjcuOTM3NSBROTUuMTI1LDI3LjkzNzUgOTUuMTI1LDI1LjEyNSBMOTMuMzc1LDI1LjEyNSBROTMuMzc1LDI1LjEyNSA5My4zNzUsMjcuOTM3NSBaIE05My4zNzUsMTguNzUgUTkzLjM3NSwxOC43NSA5My4zNzUsMjEuNTYyNSBMOTUuMTI1LDIxLjU2MjUgUTk1LjEyNSwyMS41NjI1IDk1LjEyNSwxOC43NSBMOTMuMzc1LDE4Ljc1IFogTTg5LjEyNSwxOS40Mzc1IEw5NC4wNjI1LDE5LjQzNzUgTDk0LjA2MjUsMTcuNjg3NSBMODkuMTI1LDE3LjY4NzUgTDg5LjEyNSwxOS40Mzc1IFogIiBmaWxsPSIjMDAwMDAwIi8+PHRleHQgZmlsbD0iIzAwMDAwMCIgZm9udC1mYW1pbHk9InNhbnMtc2VyaWYiIGZvbnQtc2l6ZT0iMTQiIGxlbmd0aEFkanVzdD0ic3BhY2luZyIgdGV4dExlbmd0aD0iNTYiIHg9IjEwNS41IiB5PSIyOC43NDIyIj5EaXZpc2lvbjwvdGV4dD48bGluZSBzdHlsZT0ic3Ryb2tlOiMxODE4MTg7c3Ryb2tlLXdpZHRoOjAuNTsiIHgxPSI3Ny41IiB4Mj0iMTYzLjUiIHkxPSIzOSIgeTI9IjM5Ii8+PHRleHQgZmlsbD0iIzAwMDAwMCIgZm9udC1mYW1pbHk9InNhbnMtc2VyaWYiIGZvbnQtc2l6ZT0iMTQiIGxlbmd0aEFkanVzdD0ic3BhY2luZyIgdGV4dExlbmd0aD0iMTQiIHg9IjgyLjUiIHk9IjU2LjIzNDQiPmlkPC90ZXh0Pjx0ZXh0IGZpbGw9IiMwMDAwMDAiIGZvbnQtZmFtaWx5PSJzYW5zLXNlcmlmIiBmb250LXNpemU9IjE0IiBsZW5ndGhBZGp1c3Q9InNwYWNpbmciIHRleHRMZW5ndGg9IjI5IiB4PSI4Mi41IiB5PSI3MS4yMTg4Ij5uYW1lPC90ZXh0PjxsaW5lIHN0eWxlPSJzdHJva2U6IzE4MTgxODtzdHJva2Utd2lkdGg6MC41OyIgeDE9Ijc3LjUiIHgyPSIxNjMuNSIgeTE9Ijc2Ljk2ODgiIHkyPSI3Ni45Njg4Ii8+PC9nPjwhLS1jbGFzcyBEaXN0cmljdC0tPjxnIGlkPSJlbGVtX0Rpc3RyaWN0Ij48cmVjdCBjb2RlTGluZT0iNiIgZmlsbD0iI0YxRjFGMSIgaGVpZ2h0PSIxMDcuOTM3NSIgaWQ9IkRpc3RyaWN0IiByeD0iMi41IiByeT0iMi41IiBzdHlsZT0ic3Ryb2tlOiMxODE4MTg7c3Ryb2tlLXdpZHRoOjAuNTsiIHdpZHRoPSI4OCIgeD0iNzYuNSIgeT0iMTQ1Ii8+PGVsbGlwc2UgY3g9IjkxLjUiIGN5PSIxNjEiIGZpbGw9IiNBREQxQjIiIHJ4PSIxMSIgcnk9IjExIiBzdHlsZT0ic3Ryb2tlOiMxODE4MTg7c3Ryb2tlLXdpZHRoOjEuMDsiLz48cGF0aCBkPSJNODkuMTI1LDE2NS4yNSBMODkuMTI1LDE2NyBMOTQuMDYyNSwxNjcgTDk0LjA2MjUsMTY1LjI1IEw4OS4xMjUsMTY1LjI1IFogTTg5LjgxMjUsMTY1LjkzNzUgUTg5LjgxMjUsMTY1LjkzNzUgODkuODEyNSwxNTYuNzUgTDg4LjA2MjUsMTU2Ljc1IFE4OC4wNjI1LDE1Ni43NSA4OC4wNjI1LDE2NS45Mzc1IEw4OS44MTI1LDE2NS45Mzc1IFogTTkzLjM3NSwxNjUuOTM3NSBMOTUuMTI1LDE2NS45Mzc1IFE5NS4xMjUsMTY1LjkzNzUgOTUuMTI1LDE2My4xMjUgTDkzLjM3NSwxNjMuMTI1IFE5My4zNzUsMTYzLjEyNSA5My4zNzUsMTY1LjkzNzUgWiBNOTMuMzc1LDE1Ni43NSBROTMuMzc1LDE1Ni43NSA5My4zNzUsMTU5LjU2MjUgTDk1LjEyNSwxNTkuNTYyNSBROTUuMTI1LDE1OS41NjI1IDk1LjEyNSwxNTYuNzUgTDkzLjM3NSwxNTYuNzUgWiBNODkuMTI1LDE1Ny40Mzc1IEw5NC4wNjI1LDE1Ny40Mzc1IEw5NC4wNjI1LDE1NS42ODc1IEw4OS4xMjUsMTU1LjY4NzUgTDg5LjEyNSwxNTcuNDM3NSBaICIgZmlsbD0iIzAwMDAwMCIvPjx0ZXh0IGZpbGw9IiMwMDAwMDAiIGZvbnQtZmFtaWx5PSJzYW5zLXNlcmlmIiBmb250LXNpemU9IjE0IiBsZW5ndGhBZGp1c3Q9InNwYWNpbmciIHRleHRMZW5ndGg9IjU2IiB4PSIxMDUuNSIgeT0iMTY2Ljc0MjIiPkRpc3RyaWN0PC90ZXh0PjxsaW5lIHN0eWxlPSJzdHJva2U6IzE4MTgxODtzdHJva2Utd2lkdGg6MC41OyIgeDE9Ijc3LjUiIHgyPSIxNjMuNSIgeTE9IjE3NyIgeTI9IjE3NyIvPjx0ZXh0IGZpbGw9IiMwMDAwMDAiIGZvbnQtZmFtaWx5PSJzYW5zLXNlcmlmIiBmb250LXNpemU9IjE0IiBsZW5ndGhBZGp1c3Q9InNwYWNpbmciIHRleHRMZW5ndGg9IjE0IiB4PSI4Mi41IiB5PSIxOTQuMjM0NCI+aWQ8L3RleHQ+PHRleHQgZmlsbD0iIzAwMDAwMCIgZm9udC1mYW1pbHk9InNhbnMtc2VyaWYiIGZvbnQtc2l6ZT0iMTQiIGxlbmd0aEFkanVzdD0ic3BhY2luZyIgdGV4dExlbmd0aD0iNTYiIHg9IjgyLjUiIHk9IjIwOS4yMTg4Ij5kaXZpc2lvbjwvdGV4dD48dGV4dCBmaWxsPSIjMDAwMDAwIiBmb250LWZhbWlseT0ic2Fucy1zZXJpZiIgZm9udC1zaXplPSIxNCIgbGVuZ3RoQWRqdXN0PSJzcGFjaW5nIiB0ZXh0TGVuZ3RoPSIyOSIgeD0iODIuNSIgeT0iMjI0LjIwMzEiPm5hbWU8L3RleHQ+PHRleHQgZmlsbD0iIzAwMDAwMCIgZm9udC1mYW1pbHk9InNhbnMtc2VyaWYiIGZvbnQtc2l6ZT0iMTQiIGxlbmd0aEFkanVzdD0ic3BhY2luZyIgdGV4dExlbmd0aD0iNDIiIHg9IjgyLjUiIHk9IjIzOS4xODc1Ij5jaGFyZ2U8L3RleHQ+PGxpbmUgc3R5bGU9InN0cm9rZTojMTgxODE4O3N0cm9rZS13aWR0aDowLjU7IiB4MT0iNzcuNSIgeDI9IjE2My41IiB5MT0iMjQ0LjkzNzUiIHkyPSIyNDQuOTM3NSIvPjwvZz48IS0tY2xhc3MgQXJlYS0tPjxnIGlkPSJlbGVtX0FyZWEiPjxyZWN0IGNvZGVMaW5lPSIxMyIgZmlsbD0iI0YxRjFGMSIgaGVpZ2h0PSIxMDcuOTM3NSIgaWQ9IkFyZWEiIHJ4PSIyLjUiIHJ5PSIyLjUiIHN0eWxlPSJzdHJva2U6IzE4MTgxODtzdHJva2Utd2lkdGg6MC41OyIgd2lkdGg9IjY4IiB4PSI4Ni41IiB5PSIzMjAuNSIvPjxlbGxpcHNlIGN4PSIxMDUuMSIgY3k9IjMzNi41IiBmaWxsPSIjQUREMUIyIiByeD0iMTEiIHJ5PSIxMSIgc3R5bGU9InN0cm9rZTojMTgxODE4O3N0cm9rZS13aWR0aDoxLjA7Ii8+PHBhdGggZD0iTTEwMi43MjUsMzQwLjc1IEwxMDIuNzI1LDM0Mi41IEwxMDcuNjYyNSwzNDIuNSBMMTA3LjY2MjUsMzQwLjc1IEwxMDIuNzI1LDM0MC43NSBaIE0xMDMuNDEyNSwzNDEuNDM3NSBRMTAzLjQxMjUsMzQxLjQzNzUgMTAzLjQxMjUsMzMyLjI1IEwxMDEuNjYyNSwzMzIuMjUgUTEwMS42NjI1LDMzMi4yNSAxMDEuNjYyNSwzNDEuNDM3NSBMMTAzLjQxMjUsMzQxLjQzNzUgWiBNMTA2Ljk3NSwzNDEuNDM3NSBMMTA4LjcyNSwzNDEuNDM3NSBRMTA4LjcyNSwzNDEuNDM3NSAxMDguNzI1LDMzOC42MjUgTDEwNi45NzUsMzM4LjYyNSBRMTA2Ljk3NSwzMzguNjI1IDEwNi45NzUsMzQxLjQzNzUgWiBNMTA2Ljk3NSwzMzIuMjUgUTEwNi45NzUsMzMyLjI1IDEwNi45NzUsMzM1LjA2MjUgTDEwOC43MjUsMzM1LjA2MjUgUTEwOC43MjUsMzM1LjA2MjUgMTA4LjcyNSwzMzIuMjUgTDEwNi45NzUsMzMyLjI1IFogTTEwMi43MjUsMzMyLjkzNzUgTDEwNy42NjI1LDMzMi45Mzc1IEwxMDcuNjYyNSwzMzEuMTg3NSBMMTAyLjcyNSwzMzEuMTg3NSBMMTAyLjcyNSwzMzIuOTM3NSBaICIgZmlsbD0iIzAwMDAwMCIvPjx0ZXh0IGZpbGw9IiMwMDAwMDAiIGZvbnQtZmFtaWx5PSJzYW5zLXNlcmlmIiBmb250LXNpemU9IjE0IiBsZW5ndGhBZGp1c3Q9InNwYWNpbmciIHRleHRMZW5ndGg9IjI4IiB4PSIxMTkuOSIgeT0iMzQyLjI0MjIiPkFyZWE8L3RleHQ+PGxpbmUgc3R5bGU9InN0cm9rZTojMTgxODE4O3N0cm9rZS13aWR0aDowLjU7IiB4MT0iODcuNSIgeDI9IjE1My41IiB5MT0iMzUyLjUiIHkyPSIzNTIuNSIvPjx0ZXh0IGZpbGw9IiMwMDAwMDAiIGZvbnQtZmFtaWx5PSJzYW5zLXNlcmlmIiBmb250LXNpemU9IjE0IiBsZW5ndGhBZGp1c3Q9InNwYWNpbmciIHRleHRMZW5ndGg9IjE0IiB4PSI5Mi41IiB5PSIzNjkuNzM0NCI+aWQ8L3RleHQ+PHRleHQgZmlsbD0iIzAwMDAwMCIgZm9udC1mYW1pbHk9InNhbnMtc2VyaWYiIGZvbnQtc2l6ZT0iMTQiIGxlbmd0aEFkanVzdD0ic3BhY2luZyIgdGV4dExlbmd0aD0iNTYiIHg9IjkyLjUiIHk9IjM4NC43MTg4Ij5kaXN0cmljdDwvdGV4dD48dGV4dCBmaWxsPSIjMDAwMDAwIiBmb250LWZhbWlseT0ic2Fucy1zZXJpZiIgZm9udC1zaXplPSIxNCIgbGVuZ3RoQWRqdXN0PSJzcGFjaW5nIiB0ZXh0TGVuZ3RoPSIyOSIgeD0iOTIuNSIgeT0iMzk5LjcwMzEiPm5hbWU8L3RleHQ+PHRleHQgZmlsbD0iIzAwMDAwMCIgZm9udC1mYW1pbHk9InNhbnMtc2VyaWYiIGZvbnQtc2l6ZT0iMTQiIGxlbmd0aEFkanVzdD0ic3BhY2luZyIgdGV4dExlbmd0aD0iNDIiIHg9IjkyLjUiIHk9IjQxNC42ODc1Ij5jaGFyZ2U8L3RleHQ+PGxpbmUgc3R5bGU9InN0cm9rZTojMTgxODE4O3N0cm9rZS13aWR0aDowLjU7IiB4MT0iODcuNSIgeDI9IjE1My41IiB5MT0iNDIwLjQzNzUiIHkyPSI0MjAuNDM3NSIvPjwvZz48IS0tY2xhc3MgVXNlci0tPjxnIGlkPSJlbGVtX1VzZXIiPjxyZWN0IGNvZGVMaW5lPSIyMCIgZmlsbD0iI0YxRjFGMSIgaGVpZ2h0PSIxMjIuOTIxOSIgaWQ9IlVzZXIiIHJ4PSIyLjUiIHJ5PSIyLjUiIHN0eWxlPSJzdHJva2U6IzE4MTgxODtzdHJva2Utd2lkdGg6MC41OyIgd2lkdGg9IjgzIiB4PSIzNzEiIHk9IjMxMyIvPjxlbGxpcHNlIGN4PSIzOTYuMzUiIGN5PSIzMjkiIGZpbGw9IiNBREQxQjIiIHJ4PSIxMSIgcnk9IjExIiBzdHlsZT0ic3Ryb2tlOiMxODE4MTg7c3Ryb2tlLXdpZHRoOjEuMDsiLz48cGF0aCBkPSJNMzkzLjk3NSwzMzMuMjUgTDM5My45NzUsMzM1IEwzOTguOTEyNSwzMzUgTDM5OC45MTI1LDMzMy4yNSBMMzkzLjk3NSwzMzMuMjUgWiBNMzk0LjY2MjUsMzMzLjkzNzUgUTM5NC42NjI1LDMzMy45Mzc1IDM5NC42NjI1LDMyNC43NSBMMzkyLjkxMjUsMzI0Ljc1IFEzOTIuOTEyNSwzMjQuNzUgMzkyLjkxMjUsMzMzLjkzNzUgTDM5NC42NjI1LDMzMy45Mzc1IFogTTM5OC4yMjUsMzMzLjkzNzUgTDM5OS45NzUsMzMzLjkzNzUgUTM5OS45NzUsMzMzLjkzNzUgMzk5Ljk3NSwzMzEuMTI1IEwzOTguMjI1LDMzMS4xMjUgUTM5OC4yMjUsMzMxLjEyNSAzOTguMjI1LDMzMy45Mzc1IFogTTM5OC4yMjUsMzI0Ljc1IFEzOTguMjI1LDMyNC43NSAzOTguMjI1LDMyNy41NjI1IEwzOTkuOTc1LDMyNy41NjI1IFEzOTkuOTc1LDMyNy41NjI1IDM5OS45NzUsMzI0Ljc1IEwzOTguMjI1LDMyNC43NSBaIE0zOTMuOTc1LDMyNS40Mzc1IEwzOTguOTEyNSwzMjUuNDM3NSBMMzk4LjkxMjUsMzIzLjY4NzUgTDM5My45NzUsMzIzLjY4NzUgTDM5My45NzUsMzI1LjQzNzUgWiAiIGZpbGw9IiMwMDAwMDAiLz48dGV4dCBmaWxsPSIjMDAwMDAwIiBmb250LWZhbWlseT0ic2Fucy1zZXJpZiIgZm9udC1zaXplPSIxNCIgbGVuZ3RoQWRqdXN0PSJzcGFjaW5nIiB0ZXh0TGVuZ3RoPSIyOCIgeD0iNDEyLjY1IiB5PSIzMzQuNzQyMiI+VXNlcjwvdGV4dD48bGluZSBzdHlsZT0ic3Ryb2tlOiMxODE4MTg7c3Ryb2tlLXdpZHRoOjAuNTsiIHgxPSIzNzIiIHgyPSI0NTMiIHkxPSIzNDUiIHkyPSIzNDUiLz48dGV4dCBmaWxsPSIjMDAwMDAwIiBmb250LWZhbWlseT0ic2Fucy1zZXJpZiIgZm9udC1zaXplPSIxNCIgbGVuZ3RoQWRqdXN0PSJzcGFjaW5nIiB0ZXh0TGVuZ3RoPSIxNCIgeD0iMzc3IiB5PSIzNjIuMjM0NCI+aWQ8L3RleHQ+PHRleHQgZmlsbD0iIzAwMDAwMCIgZm9udC1mYW1pbHk9InNhbnMtc2VyaWYiIGZvbnQtc2l6ZT0iMTQiIGxlbmd0aEFkanVzdD0ic3BhY2luZyIgdGV4dExlbmd0aD0iNzEiIHg9IjM3NyIgeT0iMzc3LjIxODgiPmZpcnN0X25hbWU8L3RleHQ+PHRleHQgZmlsbD0iIzAwMDAwMCIgZm9udC1mYW1pbHk9InNhbnMtc2VyaWYiIGZvbnQtc2l6ZT0iMTQiIGxlbmd0aEFkanVzdD0ic3BhY2luZyIgdGV4dExlbmd0aD0iNjQiIHg9IjM3NyIgeT0iMzkyLjIwMzEiPmxhc3RfbmFtZTwvdGV4dD48dGV4dCBmaWxsPSIjMDAwMDAwIiBmb250LWZhbWlseT0ic2Fucy1zZXJpZiIgZm9udC1zaXplPSIxNCIgbGVuZ3RoQWRqdXN0PSJzcGFjaW5nIiB0ZXh0TGVuZ3RoPSIzNiIgeD0iMzc3IiB5PSI0MDcuMTg3NSI+ZW1haWw8L3RleHQ+PHRleHQgZmlsbD0iIzAwMDAwMCIgZm9udC1mYW1pbHk9InNhbnMtc2VyaWYiIGZvbnQtc2l6ZT0iMTQiIGxlbmd0aEFkanVzdD0ic3BhY2luZyIgdGV4dExlbmd0aD0iNTciIHg9IjM3NyIgeT0iNDIyLjE3MTkiPnVzZXJuYW1lPC90ZXh0PjxsaW5lIHN0eWxlPSJzdHJva2U6IzE4MTgxODtzdHJva2Utd2lkdGg6MC41OyIgeDE9IjM3MiIgeDI9IjQ1MyIgeTE9IjQyNy45MjE5IiB5Mj0iNDI3LjkyMTkiLz48L2c+PCEtLWNsYXNzIEN1c3RvbWVyLS0+PGcgaWQ9ImVsZW1fQ3VzdG9tZXIiPjxyZWN0IGNvZGVMaW5lPSIyOCIgZmlsbD0iI0YxRjFGMSIgaGVpZ2h0PSIxMzcuOTA2MyIgaWQ9IkN1c3RvbWVyIiByeD0iMi41IiByeT0iMi41IiBzdHlsZT0ic3Ryb2tlOiMxODE4MTg7c3Ryb2tlLXdpZHRoOjAuNTsiIHdpZHRoPSI4OSIgeD0iMjU1IiB5PSI1ODYiLz48ZWxsaXBzZSBjeD0iMjcwIiBjeT0iNjAyIiBmaWxsPSIjQUREMUIyIiByeD0iMTEiIHJ5PSIxMSIgc3R5bGU9InN0cm9rZTojMTgxODE4O3N0cm9rZS13aWR0aDoxLjA7Ii8+PHBhdGggZD0iTTI2Ny42MjUsNjA2LjI1IEwyNjcuNjI1LDYwOCBMMjcyLjU2MjUsNjA4IEwyNzIuNTYyNSw2MDYuMjUgTDI2Ny42MjUsNjA2LjI1IFogTTI2OC4zMTI1LDYwNi45Mzc1IFEyNjguMzEyNSw2MDYuOTM3NSAyNjguMzEyNSw1OTcuNzUgTDI2Ni41NjI1LDU5Ny43NSBRMjY2LjU2MjUsNTk3Ljc1IDI2Ni41NjI1LDYwNi45Mzc1IEwyNjguMzEyNSw2MDYuOTM3NSBaIE0yNzEuODc1LDYwNi45Mzc1IEwyNzMuNjI1LDYwNi45Mzc1IFEyNzMuNjI1LDYwNi45Mzc1IDI3My42MjUsNjA0LjEyNSBMMjcxLjg3NSw2MDQuMTI1IFEyNzEuODc1LDYwNC4xMjUgMjcxLjg3NSw2MDYuOTM3NSBaIE0yNzEuODc1LDU5Ny43NSBRMjcxLjg3NSw1OTcuNzUgMjcxLjg3NSw2MDAuNTYyNSBMMjczLjYyNSw2MDAuNTYyNSBRMjczLjYyNSw2MDAuNTYyNSAyNzMuNjI1LDU5Ny43NSBMMjcxLjg3NSw1OTcuNzUgWiBNMjY3LjYyNSw1OTguNDM3NSBMMjcyLjU2MjUsNTk4LjQzNzUgTDI3Mi41NjI1LDU5Ni42ODc1IEwyNjcuNjI1LDU5Ni42ODc1IEwyNjcuNjI1LDU5OC40Mzc1IFogIiBmaWxsPSIjMDAwMDAwIi8+PHRleHQgZmlsbD0iIzAwMDAwMCIgZm9udC1mYW1pbHk9InNhbnMtc2VyaWYiIGZvbnQtc2l6ZT0iMTQiIGxlbmd0aEFkanVzdD0ic3BhY2luZyIgdGV4dExlbmd0aD0iNTciIHg9IjI4NCIgeT0iNjA3Ljc0MjIiPkN1c3RvbWVyPC90ZXh0PjxsaW5lIHN0eWxlPSJzdHJva2U6IzE4MTgxODtzdHJva2Utd2lkdGg6MC41OyIgeDE9IjI1NiIgeDI9IjM0MyIgeTE9IjYxOCIgeTI9IjYxOCIvPjx0ZXh0IGZpbGw9IiMwMDAwMDAiIGZvbnQtZmFtaWx5PSJzYW5zLXNlcmlmIiBmb250LXNpemU9IjE0IiBsZW5ndGhBZGp1c3Q9InNwYWNpbmciIHRleHRMZW5ndGg9IjE0IiB4PSIyNjEiIHk9IjYzNS4yMzQ0Ij5pZDwvdGV4dD48dGV4dCBmaWxsPSIjMDAwMDAwIiBmb250LWZhbWlseT0ic2Fucy1zZXJpZiIgZm9udC1zaXplPSIxNCIgbGVuZ3RoQWRqdXN0PSJzcGFjaW5nIiB0ZXh0TGVuZ3RoPSIyOCIgeD0iMjYxIiB5PSI2NTAuMjE4OCI+dXNlcjwvdGV4dD48dGV4dCBmaWxsPSIjMDAwMDAwIiBmb250LWZhbWlseT0ic2Fucy1zZXJpZiIgZm9udC1zaXplPSIxNCIgbGVuZ3RoQWRqdXN0PSJzcGFjaW5nIiB0ZXh0TGVuZ3RoPSIyOSIgeD0iMjYxIiB5PSI2NjUuMjAzMSI+bmFtZTwvdGV4dD48dGV4dCBmaWxsPSIjMDAwMDAwIiBmb250LWZhbWlseT0ic2Fucy1zZXJpZiIgZm9udC1zaXplPSIxNCIgbGVuZ3RoQWRqdXN0PSJzcGFjaW5nIiB0ZXh0TGVuZ3RoPSIzNiIgeD0iMjYxIiB5PSI2ODAuMTg3NSI+ZW1haWw8L3RleHQ+PHRleHQgZmlsbD0iIzAwMDAwMCIgZm9udC1mYW1pbHk9InNhbnMtc2VyaWYiIGZvbnQtc2l6ZT0iMTQiIGxlbmd0aEFkanVzdD0ic3BhY2luZyIgdGV4dExlbmd0aD0iMzUiIHg9IjI2MSIgeT0iNjk1LjE3MTkiPnBob25lPC90ZXh0Pjx0ZXh0IGZpbGw9IiMwMDAwMDAiIGZvbnQtZmFtaWx5PSJzYW5zLXNlcmlmIiBmb250LXNpemU9IjE0IiBsZW5ndGhBZGp1c3Q9InNwYWNpbmciIHRleHRMZW5ndGg9IjQ5IiB4PSIyNjEiIHk9IjcxMC4xNTYzIj5hZGRyZXNzPC90ZXh0PjxsaW5lIHN0eWxlPSJzdHJva2U6IzE4MTgxODtzdHJva2Utd2lkdGg6MC41OyIgeDE9IjI1NiIgeDI9IjM0MyIgeTE9IjcxNS45MDYzIiB5Mj0iNzE1LjkwNjMiLz48L2c+PCEtLWNsYXNzIFNlbGxlci0tPjxnIGlkPSJlbGVtX1NlbGxlciI+PHJlY3QgY29kZUxpbmU9IjM3IiBmaWxsPSIjRjFGMUYxIiBoZWlnaHQ9IjE2Ny44NzUiIGlkPSJTZWxsZXIiIHJ4PSIyLjUiIHJ5PSIyLjUiIHN0eWxlPSJzdHJva2U6IzE4MTgxODtzdHJva2Utd2lkdGg6MC41OyIgd2lkdGg9Ijc0IiB4PSIxNDUuNSIgeT0iNTcxIi8+PGVsbGlwc2UgY3g9IjE2MC41IiBjeT0iNTg3IiBmaWxsPSIjQUREMUIyIiByeD0iMTEiIHJ5PSIxMSIgc3R5bGU9InN0cm9rZTojMTgxODE4O3N0cm9rZS13aWR0aDoxLjA7Ii8+PHBhdGggZD0iTTE1OC4xMjUsNTkxLjI1IEwxNTguMTI1LDU5MyBMMTYzLjA2MjUsNTkzIEwxNjMuMDYyNSw1OTEuMjUgTDE1OC4xMjUsNTkxLjI1IFogTTE1OC44MTI1LDU5MS45Mzc1IFExNTguODEyNSw1OTEuOTM3NSAxNTguODEyNSw1ODIuNzUgTDE1Ny4wNjI1LDU4Mi43NSBRMTU3LjA2MjUsNTgyLjc1IDE1Ny4wNjI1LDU5MS45Mzc1IEwxNTguODEyNSw1OTEuOTM3NSBaIE0xNjIuMzc1LDU5MS45Mzc1IEwxNjQuMTI1LDU5MS45Mzc1IFExNjQuMTI1LDU5MS45Mzc1IDE2NC4xMjUsNTg5LjEyNSBMMTYyLjM3NSw1ODkuMTI1IFExNjIuMzc1LDU4OS4xMjUgMTYyLjM3NSw1OTEuOTM3NSBaIE0xNjIuMzc1LDU4Mi43NSBRMTYyLjM3NSw1ODIuNzUgMTYyLjM3NSw1ODUuNTYyNSBMMTY0LjEyNSw1ODUuNTYyNSBRMTY0LjEyNSw1ODUuNTYyNSAxNjQuMTI1LDU4Mi43NSBMMTYyLjM3NSw1ODIuNzUgWiBNMTU4LjEyNSw1ODMuNDM3NSBMMTYzLjA2MjUsNTgzLjQzNzUgTDE2My4wNjI1LDU4MS42ODc1IEwxNTguMTI1LDU4MS42ODc1IEwxNTguMTI1LDU4My40Mzc1IFogIiBmaWxsPSIjMDAwMDAwIi8+PHRleHQgZmlsbD0iIzAwMDAwMCIgZm9udC1mYW1pbHk9InNhbnMtc2VyaWYiIGZvbnQtc2l6ZT0iMTQiIGxlbmd0aEFkanVzdD0ic3BhY2luZyIgdGV4dExlbmd0aD0iNDIiIHg9IjE3NC41IiB5PSI1OTIuNzQyMiI+U2VsbGVyPC90ZXh0PjxsaW5lIHN0eWxlPSJzdHJva2U6IzE4MTgxODtzdHJva2Utd2lkdGg6MC41OyIgeDE9IjE0Ni41IiB4Mj0iMjE4LjUiIHkxPSI2MDMiIHkyPSI2MDMiLz48dGV4dCBmaWxsPSIjMDAwMDAwIiBmb250LWZhbWlseT0ic2Fucy1zZXJpZiIgZm9udC1zaXplPSIxNCIgbGVuZ3RoQWRqdXN0PSJzcGFjaW5nIiB0ZXh0TGVuZ3RoPSIxNCIgeD0iMTUxLjUiIHk9IjYyMC4yMzQ0Ij5pZDwvdGV4dD48dGV4dCBmaWxsPSIjMDAwMDAwIiBmb250LWZhbWlseT0ic2Fucy1zZXJpZiIgZm9udC1zaXplPSIxNCIgbGVuZ3RoQWRqdXN0PSJzcGFjaW5nIiB0ZXh0TGVuZ3RoPSIyOCIgeD0iMTUxLjUiIHk9IjYzNS4yMTg4Ij51c2VyPC90ZXh0Pjx0ZXh0IGZpbGw9IiMwMDAwMDAiIGZvbnQtZmFtaWx5PSJzYW5zLXNlcmlmIiBmb250LXNpemU9IjE0IiBsZW5ndGhBZGp1c3Q9InNwYWNpbmciIHRleHRMZW5ndGg9IjM1IiB4PSIxNTEuNSIgeT0iNjUwLjIwMzEiPnBob25lPC90ZXh0Pjx0ZXh0IGZpbGw9IiMwMDAwMDAiIGZvbnQtZmFtaWx5PSJzYW5zLXNlcmlmIiBmb250LXNpemU9IjE0IiBsZW5ndGhBZGp1c3Q9InNwYWNpbmciIHRleHRMZW5ndGg9IjI4IiB4PSIxNTEuNSIgeT0iNjY1LjE4NzUiPnNob3A8L3RleHQ+PHRleHQgZmlsbD0iIzAwMDAwMCIgZm9udC1mYW1pbHk9InNhbnMtc2VyaWYiIGZvbnQtc2l6ZT0iMTQiIGxlbmd0aEFkanVzdD0ic3BhY2luZyIgdGV4dExlbmd0aD0iNTAiIHg9IjE1MS41IiB5PSI2ODAuMTcxOSI+d2Vic2l0ZTwvdGV4dD48dGV4dCBmaWxsPSIjMDAwMDAwIiBmb250LWZhbWlseT0ic2Fucy1zZXJpZiIgZm9udC1zaXplPSIxNCIgbGVuZ3RoQWRqdXN0PSJzcGFjaW5nIiB0ZXh0TGVuZ3RoPSI0OSIgeD0iMTUxLjUiIHk9IjY5NS4xNTYzIj5hZGRyZXNzPC90ZXh0Pjx0ZXh0IGZpbGw9IiMwMDAwMDAiIGZvbnQtZmFtaWx5PSJzYW5zLXNlcmlmIiBmb250LXNpemU9IjE0IiBsZW5ndGhBZGp1c3Q9InNwYWNpbmciIHRleHRMZW5ndGg9IjI4IiB4PSIxNTEuNSIgeT0iNzEwLjE0MDYiPmFyZWE8L3RleHQ+PHRleHQgZmlsbD0iIzAwMDAwMCIgZm9udC1mYW1pbHk9InNhbnMtc2VyaWYiIGZvbnQtc2l6ZT0iMTQiIGxlbmd0aEFkanVzdD0ic3BhY2luZyIgdGV4dExlbmd0aD0iMzUiIHg9IjE1MS41IiB5PSI3MjUuMTI1Ij5ia2FzaDwvdGV4dD48bGluZSBzdHlsZT0ic3Ryb2tlOiMxODE4MTg7c3Ryb2tlLXdpZHRoOjAuNTsiIHgxPSIxNDYuNSIgeDI9IjIxOC41IiB5MT0iNzMwLjg3NSIgeTI9IjczMC44NzUiLz48L2c+PCEtLWNsYXNzIFBhcmNlbC0tPjxnIGlkPSJlbGVtX1BhcmNlbCI+PHJlY3QgY29kZUxpbmU9IjQ4IiBmaWxsPSIjRjFGMUYxIiBoZWlnaHQ9IjMxNy43MTg4IiBpZD0iUGFyY2VsIiByeD0iMi41IiByeT0iMi41IiBzdHlsZT0ic3Ryb2tlOiMxODE4MTg7c3Ryb2tlLXdpZHRoOjAuNTsiIHdpZHRoPSIxMDMiIHg9IjciIHk9IjQ5NiIvPjxlbGxpcHNlIGN4PSIzNS4wNSIgY3k9IjUxMiIgZmlsbD0iI0FERDFCMiIgcng9IjExIiByeT0iMTEiIHN0eWxlPSJzdHJva2U6IzE4MTgxODtzdHJva2Utd2lkdGg6MS4wOyIvPjxwYXRoIGQ9Ik0zMi42NzUsNTE2LjI1IEwzMi42NzUsNTE4IEwzNy42MTI1LDUxOCBMMzcuNjEyNSw1MTYuMjUgTDMyLjY3NSw1MTYuMjUgWiBNMzMuMzYyNSw1MTYuOTM3NSBRMzMuMzYyNSw1MTYuOTM3NSAzMy4zNjI1LDUwNy43NSBMMzEuNjEyNSw1MDcuNzUgUTMxLjYxMjUsNTA3Ljc1IDMxLjYxMjUsNTE2LjkzNzUgTDMzLjM2MjUsNTE2LjkzNzUgWiBNMzYuOTI1LDUxNi45Mzc1IEwzOC42NzUsNTE2LjkzNzUgUTM4LjY3NSw1MTYuOTM3NSAzOC42NzUsNTE0LjEyNSBMMzYuOTI1LDUxNC4xMjUgUTM2LjkyNSw1MTQuMTI1IDM2LjkyNSw1MTYuOTM3NSBaIE0zNi45MjUsNTA3Ljc1IFEzNi45MjUsNTA3Ljc1IDM2LjkyNSw1MTAuNTYyNSBMMzguNjc1LDUxMC41NjI1IFEzOC42NzUsNTEwLjU2MjUgMzguNjc1LDUwNy43NSBMMzYuOTI1LDUwNy43NSBaIE0zMi42NzUsNTA4LjQzNzUgTDM3LjYxMjUsNTA4LjQzNzUgTDM3LjYxMjUsNTA2LjY4NzUgTDMyLjY3NSw1MDYuNjg3NSBMMzIuNjc1LDUwOC40Mzc1IFogIiBmaWxsPSIjMDAwMDAwIi8+PHRleHQgZmlsbD0iIzAwMDAwMCIgZm9udC1mYW1pbHk9InNhbnMtc2VyaWYiIGZvbnQtc2l6ZT0iMTQiIGxlbmd0aEFkanVzdD0ic3BhY2luZyIgdGV4dExlbmd0aD0iNDIiIHg9IjUxLjk1IiB5PSI1MTcuNzQyMiI+UGFyY2VsPC90ZXh0PjxsaW5lIHN0eWxlPSJzdHJva2U6IzE4MTgxODtzdHJva2Utd2lkdGg6MC41OyIgeDE9IjgiIHgyPSIxMDkiIHkxPSI1MjgiIHkyPSI1MjgiLz48dGV4dCBmaWxsPSIjMDAwMDAwIiBmb250LWZhbWlseT0ic2Fucy1zZXJpZiIgZm9udC1zaXplPSIxNCIgbGVuZ3RoQWRqdXN0PSJzcGFjaW5nIiB0ZXh0TGVuZ3RoPSIxNCIgeD0iMTMiIHk9IjU0NS4yMzQ0Ij5pZDwvdGV4dD48dGV4dCBmaWxsPSIjMDAwMDAwIiBmb250LWZhbWlseT0ic2Fucy1zZXJpZiIgZm9udC1zaXplPSIxNCIgbGVuZ3RoQWRqdXN0PSJzcGFjaW5nIiB0ZXh0TGVuZ3RoPSIyMSIgeD0iMTMiIHk9IjU2MC4yMTg4Ij5odWI8L3RleHQ+PHRleHQgZmlsbD0iIzAwMDAwMCIgZm9udC1mYW1pbHk9InNhbnMtc2VyaWYiIGZvbnQtc2l6ZT0iMTQiIGxlbmd0aEFkanVzdD0ic3BhY2luZyIgdGV4dExlbmd0aD0iMzUiIHg9IjEzIiB5PSI1NzUuMjAzMSI+cmlkZXI8L3RleHQ+PHRleHQgZmlsbD0iIzAwMDAwMCIgZm9udC1mYW1pbHk9InNhbnMtc2VyaWYiIGZvbnQtc2l6ZT0iMTQiIGxlbmd0aEFkanVzdD0ic3BhY2luZyIgdGV4dExlbmd0aD0iNTYiIHg9IjEzIiB5PSI1OTAuMTg3NSI+Y2F0ZWdvcnk8L3RleHQ+PHRleHQgZmlsbD0iIzAwMDAwMCIgZm9udC1mYW1pbHk9InNhbnMtc2VyaWYiIGZvbnQtc2l6ZT0iMTQiIGxlbmd0aEFkanVzdD0ic3BhY2luZyIgdGV4dExlbmd0aD0iNzciIHg9IjEzIiB5PSI2MDUuMTcxOSI+ZGVzY3JpcHRpb248L3RleHQ+PHRleHQgZmlsbD0iIzAwMDAwMCIgZm9udC1mYW1pbHk9InNhbnMtc2VyaWYiIGZvbnQtc2l6ZT0iMTQiIGxlbmd0aEFkanVzdD0ic3BhY2luZyIgdGV4dExlbmd0aD0iNDIiIHg9IjEzIiB5PSI2MjAuMTU2MyI+c2VsbGVyPC90ZXh0Pjx0ZXh0IGZpbGw9IiMwMDAwMDAiIGZvbnQtZmFtaWx5PSJzYW5zLXNlcmlmIiBmb250LXNpemU9IjE0IiBsZW5ndGhBZGp1c3Q9InNwYWNpbmciIHRleHRMZW5ndGg9IjU3IiB4PSIxMyIgeT0iNjM1LjE0MDYiPmN1c3RvbWVyPC90ZXh0Pjx0ZXh0IGZpbGw9IiMwMDAwMDAiIGZvbnQtZmFtaWx5PSJzYW5zLXNlcmlmIiBmb250LXNpemU9IjE0IiBsZW5ndGhBZGp1c3Q9InNwYWNpbmciIHRleHRMZW5ndGg9IjQzIiB4PSIxMyIgeT0iNjUwLjEyNSI+d2VpZ2h0PC90ZXh0Pjx0ZXh0IGZpbGw9IiMwMDAwMDAiIGZvbnQtZmFtaWx5PSJzYW5zLXNlcmlmIiBmb250LXNpemU9IjE0IiBsZW5ndGhBZGp1c3Q9InNwYWNpbmciIHRleHRMZW5ndGg9IjI4IiB4PSIxMyIgeT0iNjY1LjEwOTQiPmFyZWE8L3RleHQ+PHRleHQgZmlsbD0iIzAwMDAwMCIgZm9udC1mYW1pbHk9InNhbnMtc2VyaWYiIGZvbnQtc2l6ZT0iMTQiIGxlbmd0aEFkanVzdD0ic3BhY2luZyIgdGV4dExlbmd0aD0iNDkiIHg9IjEzIiB5PSI2ODAuMDkzOCI+YWRkcmVzczwvdGV4dD48dGV4dCBmaWxsPSIjMDAwMDAwIiBmb250LWZhbWlseT0ic2Fucy1zZXJpZiIgZm9udC1zaXplPSIxNCIgbGVuZ3RoQWRqdXN0PSJzcGFjaW5nIiB0ZXh0TGVuZ3RoPSI0MiIgeD0iMTMiIHk9IjY5NS4wNzgxIj5zdGF0dXM8L3RleHQ+PHRleHQgZmlsbD0iIzAwMDAwMCIgZm9udC1mYW1pbHk9InNhbnMtc2VyaWYiIGZvbnQtc2l6ZT0iMTQiIGxlbmd0aEFkanVzdD0ic3BhY2luZyIgdGV4dExlbmd0aD0iOTEiIHg9IjEzIiB5PSI3MTAuMDYyNSI+cHJvZHVjdF9wcmljZTwvdGV4dD48dGV4dCBmaWxsPSIjMDAwMDAwIiBmb250LWZhbWlseT0ic2Fucy1zZXJpZiIgZm9udC1zaXplPSIxNCIgbGVuZ3RoQWRqdXN0PSJzcGFjaW5nIiB0ZXh0TGVuZ3RoPSIyMSIgeD0iMTMiIHk9IjcyNS4wNDY5Ij5jb2Q8L3RleHQ+PHRleHQgZmlsbD0iIzAwMDAwMCIgZm9udC1mYW1pbHk9InNhbnMtc2VyaWYiIGZvbnQtc2l6ZT0iMTQiIGxlbmd0aEFkanVzdD0ic3BhY2luZyIgdGV4dExlbmd0aD0iNDIiIHg9IjEzIiB5PSI3NDAuMDMxMyI+Y2hhcmdlPC90ZXh0Pjx0ZXh0IGZpbGw9IiMwMDAwMDAiIGZvbnQtZmFtaWx5PSJzYW5zLXNlcmlmIiBmb250LXNpemU9IjE0IiBsZW5ndGhBZGp1c3Q9InNwYWNpbmciIHRleHRMZW5ndGg9IjI4IiB4PSIxMyIgeT0iNzU1LjAxNTYiPmNhc2g8L3RleHQ+PHRleHQgZmlsbD0iIzAwMDAwMCIgZm9udC1mYW1pbHk9InNhbnMtc2VyaWYiIGZvbnQtc2l6ZT0iMTQiIGxlbmd0aEFkanVzdD0ic3BhY2luZyIgdGV4dExlbmd0aD0iNzAiIHg9IjEzIiB5PSI3NzAiPmNyZWF0ZWRfYXQ8L3RleHQ+PHRleHQgZmlsbD0iIzAwMDAwMCIgZm9udC1mYW1pbHk9InNhbnMtc2VyaWYiIGZvbnQtc2l6ZT0iMTQiIGxlbmd0aEFkanVzdD0ic3BhY2luZyIgdGV4dExlbmd0aD0iMzUiIHg9IjEzIiB5PSI3ODQuOTg0NCI+cGhvbmU8L3RleHQ+PHRleHQgZmlsbD0iIzAwMDAwMCIgZm9udC1mYW1pbHk9InNhbnMtc2VyaWYiIGZvbnQtc2l6ZT0iMTQiIGxlbmd0aEFkanVzdD0ic3BhY2luZyIgdGV4dExlbmd0aD0iMjkiIHg9IjEzIiB5PSI3OTkuOTY4OCI+bmFtZTwvdGV4dD48bGluZSBzdHlsZT0ic3Ryb2tlOiMxODE4MTg7c3Ryb2tlLXdpZHRoOjAuNTsiIHgxPSI4IiB4Mj0iMTA5IiB5MT0iODA1LjcxODgiIHkyPSI4MDUuNzE4OCIvPjwvZz48IS0tY2xhc3MgUGFyY2VsTG9nLS0+PGcgaWQ9ImVsZW1fUGFyY2VsTG9nIj48cmVjdCBjb2RlTGluZT0iNjkiIGZpbGw9IiNGMUYxRjEiIGhlaWdodD0iMTIyLjkyMTkiIGlkPSJQYXJjZWxMb2ciIHJ4PSIyLjUiIHJ5PSIyLjUiIHN0eWxlPSJzdHJva2U6IzE4MTgxODtzdHJva2Utd2lkdGg6MC41OyIgd2lkdGg9Ijk1IiB4PSIxMSIgeT0iODc0Ii8+PGVsbGlwc2UgY3g9IjI2IiBjeT0iODkwIiBmaWxsPSIjQUREMUIyIiByeD0iMTEiIHJ5PSIxMSIgc3R5bGU9InN0cm9rZTojMTgxODE4O3N0cm9rZS13aWR0aDoxLjA7Ii8+PHBhdGggZD0iTTIzLjYyNSw4OTQuMjUgTDIzLjYyNSw4OTYgTDI4LjU2MjUsODk2IEwyOC41NjI1LDg5NC4yNSBMMjMuNjI1LDg5NC4yNSBaIE0yNC4zMTI1LDg5NC45Mzc1IFEyNC4zMTI1LDg5NC45Mzc1IDI0LjMxMjUsODg1Ljc1IEwyMi41NjI1LDg4NS43NSBRMjIuNTYyNSw4ODUuNzUgMjIuNTYyNSw4OTQuOTM3NSBMMjQuMzEyNSw4OTQuOTM3NSBaIE0yNy44NzUsODk0LjkzNzUgTDI5LjYyNSw4OTQuOTM3NSBRMjkuNjI1LDg5NC45Mzc1IDI5LjYyNSw4OTIuMTI1IEwyNy44NzUsODkyLjEyNSBRMjcuODc1LDg5Mi4xMjUgMjcuODc1LDg5NC45Mzc1IFogTTI3Ljg3NSw4ODUuNzUgUTI3Ljg3NSw4ODUuNzUgMjcuODc1LDg4OC41NjI1IEwyOS42MjUsODg4LjU2MjUgUTI5LjYyNSw4ODguNTYyNSAyOS42MjUsODg1Ljc1IEwyNy44NzUsODg1Ljc1IFogTTIzLjYyNSw4ODYuNDM3NSBMMjguNTYyNSw4ODYuNDM3NSBMMjguNTYyNSw4ODQuNjg3NSBMMjMuNjI1LDg4NC42ODc1IEwyMy42MjUsODg2LjQzNzUgWiAiIGZpbGw9IiMwMDAwMDAiLz48dGV4dCBmaWxsPSIjMDAwMDAwIiBmb250LWZhbWlseT0ic2Fucy1zZXJpZiIgZm9udC1zaXplPSIxNCIgbGVuZ3RoQWRqdXN0PSJzcGFjaW5nIiB0ZXh0TGVuZ3RoPSI2MyIgeD0iNDAiIHk9Ijg5NS43NDIyIj5QYXJjZWxMb2c8L3RleHQ+PGxpbmUgc3R5bGU9InN0cm9rZTojMTgxODE4O3N0cm9rZS13aWR0aDowLjU7IiB4MT0iMTIiIHgyPSIxMDUiIHkxPSI5MDYiIHkyPSI5MDYiLz48dGV4dCBmaWxsPSIjMDAwMDAwIiBmb250LWZhbWlseT0ic2Fucy1zZXJpZiIgZm9udC1zaXplPSIxNCIgbGVuZ3RoQWRqdXN0PSJzcGFjaW5nIiB0ZXh0TGVuZ3RoPSIxNCIgeD0iMTciIHk9IjkyMy4yMzQ0Ij5pZDwvdGV4dD48dGV4dCBmaWxsPSIjMDAwMDAwIiBmb250LWZhbWlseT0ic2Fucy1zZXJpZiIgZm9udC1zaXplPSIxNCIgbGVuZ3RoQWRqdXN0PSJzcGFjaW5nIiB0ZXh0TGVuZ3RoPSI0MiIgeD0iMTciIHk9IjkzOC4yMTg4Ij5wYXJjZWw8L3RleHQ+PHRleHQgZmlsbD0iIzAwMDAwMCIgZm9udC1mYW1pbHk9InNhbnMtc2VyaWYiIGZvbnQtc2l6ZT0iMTQiIGxlbmd0aEFkanVzdD0ic3BhY2luZyIgdGV4dExlbmd0aD0iMzUiIHg9IjE3IiB5PSI5NTMuMjAzMSI+dGl0bGU8L3RleHQ+PHRleHQgZmlsbD0iIzAwMDAwMCIgZm9udC1mYW1pbHk9InNhbnMtc2VyaWYiIGZvbnQtc2l6ZT0iMTQiIGxlbmd0aEFkanVzdD0ic3BhY2luZyIgdGV4dExlbmd0aD0iNzciIHg9IjE3IiB5PSI5NjguMTg3NSI+ZGVzY3JpcHRpb248L3RleHQ+PHRleHQgZmlsbD0iIzAwMDAwMCIgZm9udC1mYW1pbHk9InNhbnMtc2VyaWYiIGZvbnQtc2l6ZT0iMTQiIGxlbmd0aEFkanVzdD0ic3BhY2luZyIgdGV4dExlbmd0aD0iNzAiIHg9IjE3IiB5PSI5ODMuMTcxOSI+Y3JlYXRlZF9hdDwvdGV4dD48bGluZSBzdHlsZT0ic3Ryb2tlOiMxODE4MTg7c3Ryb2tlLXdpZHRoOjAuNTsiIHgxPSIxMiIgeDI9IjEwNSIgeTE9Ijk4OC45MjE5IiB5Mj0iOTg4LjkyMTkiLz48L2c+PCEtLWNsYXNzIFN0YWZmLS0+PGcgaWQ9ImVsZW1fU3RhZmYiPjxyZWN0IGNvZGVMaW5lPSI3NyIgZmlsbD0iI0YxRjFGMSIgaGVpZ2h0PSIxNTIuODkwNiIgaWQ9IlN0YWZmIiByeD0iMi41IiByeT0iMi41IiBzdHlsZT0ic3Ryb2tlOiMxODE4MTg7c3Ryb2tlLXdpZHRoOjAuNTsiIHdpZHRoPSI2NyIgeD0iMzc5IiB5PSI1NzguNSIvPjxlbGxpcHNlIGN4PSIzOTQiIGN5PSI1OTQuNSIgZmlsbD0iI0FERDFCMiIgcng9IjExIiByeT0iMTEiIHN0eWxlPSJzdHJva2U6IzE4MTgxODtzdHJva2Utd2lkdGg6MS4wOyIvPjxwYXRoIGQ9Ik0zOTEuNjI1LDU5OC43NSBMMzkxLjYyNSw2MDAuNSBMMzk2LjU2MjUsNjAwLjUgTDM5Ni41NjI1LDU5OC43NSBMMzkxLjYyNSw1OTguNzUgWiBNMzkyLjMxMjUsNTk5LjQzNzUgUTM5Mi4zMTI1LDU5OS40Mzc1IDM5Mi4zMTI1LDU5MC4yNSBMMzkwLjU2MjUsNTkwLjI1IFEzOTAuNTYyNSw1OTAuMjUgMzkwLjU2MjUsNTk5LjQzNzUgTDM5Mi4zMTI1LDU5OS40Mzc1IFogTTM5NS44NzUsNTk5LjQzNzUgTDM5Ny42MjUsNTk5LjQzNzUgUTM5Ny42MjUsNTk5LjQzNzUgMzk3LjYyNSw1OTYuNjI1IEwzOTUuODc1LDU5Ni42MjUgUTM5NS44NzUsNTk2LjYyNSAzOTUuODc1LDU5OS40Mzc1IFogTTM5NS44NzUsNTkwLjI1IFEzOTUuODc1LDU5MC4yNSAzOTUuODc1LDU5My4wNjI1IEwzOTcuNjI1LDU5My4wNjI1IFEzOTcuNjI1LDU5My4wNjI1IDM5Ny42MjUsNTkwLjI1IEwzOTUuODc1LDU5MC4yNSBaIE0zOTEuNjI1LDU5MC45Mzc1IEwzOTYuNTYyNSw1OTAuOTM3NSBMMzk2LjU2MjUsNTg5LjE4NzUgTDM5MS42MjUsNTg5LjE4NzUgTDM5MS42MjUsNTkwLjkzNzUgWiAiIGZpbGw9IiMwMDAwMDAiLz48dGV4dCBmaWxsPSIjMDAwMDAwIiBmb250LWZhbWlseT0ic2Fucy1zZXJpZiIgZm9udC1zaXplPSIxNCIgbGVuZ3RoQWRqdXN0PSJzcGFjaW5nIiB0ZXh0TGVuZ3RoPSIzNSIgeD0iNDA4IiB5PSI2MDAuMjQyMiI+U3RhZmY8L3RleHQ+PGxpbmUgc3R5bGU9InN0cm9rZTojMTgxODE4O3N0cm9rZS13aWR0aDowLjU7IiB4MT0iMzgwIiB4Mj0iNDQ1IiB5MT0iNjEwLjUiIHkyPSI2MTAuNSIvPjx0ZXh0IGZpbGw9IiMwMDAwMDAiIGZvbnQtZmFtaWx5PSJzYW5zLXNlcmlmIiBmb250LXNpemU9IjE0IiBsZW5ndGhBZGp1c3Q9InNwYWNpbmciIHRleHRMZW5ndGg9IjE0IiB4PSIzODUiIHk9IjYyNy43MzQ0Ij5pZDwvdGV4dD48dGV4dCBmaWxsPSIjMDAwMDAwIiBmb250LWZhbWlseT0ic2Fucy1zZXJpZiIgZm9udC1zaXplPSIxNCIgbGVuZ3RoQWRqdXN0PSJzcGFjaW5nIiB0ZXh0TGVuZ3RoPSIyOCIgeD0iMzg1IiB5PSI2NDIuNzE4OCI+dXNlcjwvdGV4dD48dGV4dCBmaWxsPSIjMDAwMDAwIiBmb250LWZhbWlseT0ic2Fucy1zZXJpZiIgZm9udC1zaXplPSIxNCIgbGVuZ3RoQWRqdXN0PSJzcGFjaW5nIiB0ZXh0TGVuZ3RoPSIyOCIgeD0iMzg1IiB5PSI2NTcuNzAzMSI+YXJlYTwvdGV4dD48dGV4dCBmaWxsPSIjMDAwMDAwIiBmb250LWZhbWlseT0ic2Fucy1zZXJpZiIgZm9udC1zaXplPSIxNCIgbGVuZ3RoQWRqdXN0PSJzcGFjaW5nIiB0ZXh0TGVuZ3RoPSIyOSIgeD0iMzg1IiB5PSI2NzIuNjg3NSI+bmFtZTwvdGV4dD48dGV4dCBmaWxsPSIjMDAwMDAwIiBmb250LWZhbWlseT0ic2Fucy1zZXJpZiIgZm9udC1zaXplPSIxNCIgbGVuZ3RoQWRqdXN0PSJzcGFjaW5nIiB0ZXh0TGVuZ3RoPSIzNiIgeD0iMzg1IiB5PSI2ODcuNjcxOSI+ZW1haWw8L3RleHQ+PHRleHQgZmlsbD0iIzAwMDAwMCIgZm9udC1mYW1pbHk9InNhbnMtc2VyaWYiIGZvbnQtc2l6ZT0iMTQiIGxlbmd0aEFkanVzdD0ic3BhY2luZyIgdGV4dExlbmd0aD0iMzUiIHg9IjM4NSIgeT0iNzAyLjY1NjMiPnBob25lPC90ZXh0Pjx0ZXh0IGZpbGw9IiMwMDAwMDAiIGZvbnQtZmFtaWx5PSJzYW5zLXNlcmlmIiBmb250LXNpemU9IjE0IiBsZW5ndGhBZGp1c3Q9InNwYWNpbmciIHRleHRMZW5ndGg9IjI4IiB4PSIzODUiIHk9IjcxNy42NDA2Ij50eXBlPC90ZXh0PjxsaW5lIHN0eWxlPSJzdHJva2U6IzE4MTgxODtzdHJva2Utd2lkdGg6MC41OyIgeDE9IjM4MCIgeDI9IjQ0NSIgeTE9IjcyMy4zOTA2IiB5Mj0iNzIzLjM5MDYiLz48L2c+PCEtLWNsYXNzIE90cC0tPjxnIGlkPSJlbGVtX090cCI+PHJlY3QgY29kZUxpbmU9Ijg3IiBmaWxsPSIjRjFGMUYxIiBoZWlnaHQ9IjEyMi45MjE5IiBpZD0iT3RwIiByeD0iMi41IiByeT0iMi41IiBzdHlsZT0ic3Ryb2tlOiMxODE4MTg7c3Ryb2tlLXdpZHRoOjAuNTsiIHdpZHRoPSI4MiIgeD0iNDgxLjUiIHk9IjU5My41Ii8+PGVsbGlwc2UgY3g9IjUwOS41NSIgY3k9IjYwOS41IiBmaWxsPSIjQUREMUIyIiByeD0iMTEiIHJ5PSIxMSIgc3R5bGU9InN0cm9rZTojMTgxODE4O3N0cm9rZS13aWR0aDoxLjA7Ii8+PHBhdGggZD0iTTUwNy4xNzUsNjEzLjc1IEw1MDcuMTc1LDYxNS41IEw1MTIuMTEyNSw2MTUuNSBMNTEyLjExMjUsNjEzLjc1IEw1MDcuMTc1LDYxMy43NSBaIE01MDcuODYyNSw2MTQuNDM3NSBRNTA3Ljg2MjUsNjE0LjQzNzUgNTA3Ljg2MjUsNjA1LjI1IEw1MDYuMTEyNSw2MDUuMjUgUTUwNi4xMTI1LDYwNS4yNSA1MDYuMTEyNSw2MTQuNDM3NSBMNTA3Ljg2MjUsNjE0LjQzNzUgWiBNNTExLjQyNSw2MTQuNDM3NSBMNTEzLjE3NSw2MTQuNDM3NSBRNTEzLjE3NSw2MTQuNDM3NSA1MTMuMTc1LDYxMS42MjUgTDUxMS40MjUsNjExLjYyNSBRNTExLjQyNSw2MTEuNjI1IDUxMS40MjUsNjE0LjQzNzUgWiBNNTExLjQyNSw2MDUuMjUgUTUxMS40MjUsNjA1LjI1IDUxMS40MjUsNjA4LjA2MjUgTDUxMy4xNzUsNjA4LjA2MjUgUTUxMy4xNzUsNjA4LjA2MjUgNTEzLjE3NSw2MDUuMjUgTDUxMS40MjUsNjA1LjI1IFogTTUwNy4xNzUsNjA1LjkzNzUgTDUxMi4xMTI1LDYwNS45Mzc1IEw1MTIuMTEyNSw2MDQuMTg3NSBMNTA3LjE3NSw2MDQuMTg3NSBMNTA3LjE3NSw2MDUuOTM3NSBaICIgZmlsbD0iIzAwMDAwMCIvPjx0ZXh0IGZpbGw9IiMwMDAwMDAiIGZvbnQtZmFtaWx5PSJzYW5zLXNlcmlmIiBmb250LXNpemU9IjE0IiBsZW5ndGhBZGp1c3Q9InNwYWNpbmciIHRleHRMZW5ndGg9IjIxIiB4PSI1MjYuNDUiIHk9IjYxNS4yNDIyIj5PdHA8L3RleHQ+PGxpbmUgc3R5bGU9InN0cm9rZTojMTgxODE4O3N0cm9rZS13aWR0aDowLjU7IiB4MT0iNDgyLjUiIHgyPSI1NjIuNSIgeTE9IjYyNS41IiB5Mj0iNjI1LjUiLz48dGV4dCBmaWxsPSIjMDAwMDAwIiBmb250LWZhbWlseT0ic2Fucy1zZXJpZiIgZm9udC1zaXplPSIxNCIgbGVuZ3RoQWRqdXN0PSJzcGFjaW5nIiB0ZXh0TGVuZ3RoPSIxNCIgeD0iNDg3LjUiIHk9IjY0Mi43MzQ0Ij5pZDwvdGV4dD48dGV4dCBmaWxsPSIjMDAwMDAwIiBmb250LWZhbWlseT0ic2Fucy1zZXJpZiIgZm9udC1zaXplPSIxNCIgbGVuZ3RoQWRqdXN0PSJzcGFjaW5nIiB0ZXh0TGVuZ3RoPSIyMSIgeD0iNDg3LjUiIHk9IjY1Ny43MTg4Ij5vdHA8L3RleHQ+PHRleHQgZmlsbD0iIzAwMDAwMCIgZm9udC1mYW1pbHk9InNhbnMtc2VyaWYiIGZvbnQtc2l6ZT0iMTQiIGxlbmd0aEFkanVzdD0ic3BhY2luZyIgdGV4dExlbmd0aD0iMzUiIHg9IjQ4Ny41IiB5PSI2NzIuNzAzMSI+cGhvbmU8L3RleHQ+PHRleHQgZmlsbD0iIzAwMDAwMCIgZm9udC1mYW1pbHk9InNhbnMtc2VyaWYiIGZvbnQtc2l6ZT0iMTQiIGxlbmd0aEFkanVzdD0ic3BhY2luZyIgdGV4dExlbmd0aD0iNzAiIHg9IjQ4Ny41IiB5PSI2ODcuNjg3NSI+Y3JlYXRlZF9hdDwvdGV4dD48dGV4dCBmaWxsPSIjMDAwMDAwIiBmb250LWZhbWlseT0ic2Fucy1zZXJpZiIgZm9udC1zaXplPSIxNCIgbGVuZ3RoQWRqdXN0PSJzcGFjaW5nIiB0ZXh0TGVuZ3RoPSI3MCIgeD0iNDg3LjUiIHk9IjcwMi42NzE5Ij52YWxpZF90aWxsPC90ZXh0PjxsaW5lIHN0eWxlPSJzdHJva2U6IzE4MTgxODtzdHJva2Utd2lkdGg6MC41OyIgeDE9IjQ4Mi41IiB4Mj0iNTYyLjUiIHkxPSI3MDguNDIxOSIgeTI9IjcwOC40MjE5Ii8+PC9nPjwhLS1saW5rIERpdmlzaW9uIHRvIERpc3RyaWN0LS0+PGcgaWQ9ImxpbmtfRGl2aXNpb25fRGlzdHJpY3QiPjxwYXRoIGNvZGVMaW5lPSI5NSIgZD0iTTEyMC41LDg1LjEgQzEyMC41LDEwMy4xOSAxMjAuNSwxMjUuMSAxMjAuNSwxNDQuOCAiIGZpbGw9Im5vbmUiIGlkPSJEaXZpc2lvbi1EaXN0cmljdCIgc3R5bGU9InN0cm9rZTojMTgxODE4O3N0cm9rZS13aWR0aDoxLjA7Ii8+PHRleHQgZmlsbD0iIzAwMDAwMCIgZm9udC1mYW1pbHk9InNhbnMtc2VyaWYiIGZvbnQtc2l6ZT0iMTMiIGxlbmd0aEFkanVzdD0ic3BhY2luZyIgdGV4dExlbmd0aD0iNyIgeD0iMTEyLjg5ODQiIHk9IjEwNS4zMDc4Ij4xPC90ZXh0Pjx0ZXh0IGZpbGw9IiMwMDAwMDAiIGZvbnQtZmFtaWx5PSJzYW5zLXNlcmlmIiBmb250LXNpemU9IjEzIiBsZW5ndGhBZGp1c3Q9InNwYWNpbmciIHRleHRMZW5ndGg9IjciIHg9IjExMi45ODU5IiB5PSIxMzUuMjQ1NSI+TjwvdGV4dD48L2c+PCEtLWxpbmsgRGlzdHJpY3QgdG8gQXJlYS0tPjxnIGlkPSJsaW5rX0Rpc3RyaWN0X0FyZWEiPjxwYXRoIGNvZGVMaW5lPSI5NiIgZD0iTTEyMC41LDI1My40NyBDMTIwLjUsMjc0LjY4IDEyMC41LDI5OS4wMSAxMjAuNSwzMjAuMjEgIiBmaWxsPSJub25lIiBpZD0iRGlzdHJpY3QtQXJlYSIgc3R5bGU9InN0cm9rZTojMTgxODE4O3N0cm9rZS13aWR0aDoxLjA7Ii8+PHRleHQgZmlsbD0iIzAwMDAwMCIgZm9udC1mYW1pbHk9InNhbnMtc2VyaWYiIGZvbnQtc2l6ZT0iMTMiIGxlbmd0aEFkanVzdD0ic3BhY2luZyIgdGV4dExlbmd0aD0iNyIgeD0iMTEzLjA3MzQiIHk9IjI3My4yNDkzIj4xPC90ZXh0Pjx0ZXh0IGZpbGw9IiMwMDAwMDAiIGZvbnQtZmFtaWx5PSJzYW5zLXNlcmlmIiBmb250LXNpemU9IjEzIiBsZW5ndGhBZGp1c3Q9InNwYWNpbmciIHRleHRMZW5ndGg9IjciIHg9IjExMy4wMDc4IiB5PSIzMTEuMDE5MSI+TjwvdGV4dD48L2c+PCEtLWxpbmsgVXNlciB0byBDdXN0b21lci0tPjxnIGlkPSJsaW5rX1VzZXJfQ3VzdG9tZXIiPjxwYXRoIGNvZGVMaW5lPSI5NyIgZD0iTTM4Ni41LDQzNi4wNSBDMzc4LjM5LDQ1NS4xOSAzNjkuNDgsNDc2LjQ0IDM2MS41LDQ5NiBDMzQ5LjU0LDUyNS4zMyAzMzYuNjksNTU3Ljg5IDMyNS44MSw1ODUuNzkgIiBmaWxsPSJub25lIiBpZD0iVXNlci1DdXN0b21lciIgc3R5bGU9InN0cm9rZTojMTgxODE4O3N0cm9rZS13aWR0aDoxLjA7Ii8+PHRleHQgZmlsbD0iIzAwMDAwMCIgZm9udC1mYW1pbHk9InNhbnMtc2VyaWYiIGZvbnQtc2l6ZT0iMTMiIGxlbmd0aEFkanVzdD0ic3BhY2luZyIgdGV4dExlbmd0aD0iNyIgeD0iMzc2LjA4OTEiIHk9IjQ1Ni4yNjQ3Ij4xPC90ZXh0Pjx0ZXh0IGZpbGw9IiMwMDAwMDAiIGZvbnQtZmFtaWx5PSJzYW5zLXNlcmlmIiBmb250LXNpemU9IjEzIiBsZW5ndGhBZGp1c3Q9InNwYWNpbmciIHRleHRMZW5ndGg9IjciIHg9IjMyMS40NDc0IiB5PSI1NzYuMzgzNCI+MTwvdGV4dD48L2c+PCEtLWxpbmsgVXNlciB0byBTZWxsZXItLT48ZyBpZD0ibGlua19Vc2VyX1NlbGxlciI+PHBhdGggY29kZUxpbmU9Ijk4IiBkPSJNMzcwLjczLDM5NC41OCBDMzMxLjIyLDQxNC42MSAyNzIuODQsNDQ5LjY1IDIzNy41LDQ5NiBDMjIwLjg2LDUxNy44MyAyMDkuMDEsNTQ1LjA3IDIwMC42OCw1NzAuNzYgIiBmaWxsPSJub25lIiBpZD0iVXNlci1TZWxsZXIiIHN0eWxlPSJzdHJva2U6IzE4MTgxODtzdHJva2Utd2lkdGg6MS4wOyIvPjx0ZXh0IGZpbGw9IiMwMDAwMDAiIGZvbnQtZmFtaWx5PSJzYW5zLXNlcmlmIiBmb250LXNpemU9IjEzIiBsZW5ndGhBZGp1c3Q9InNwYWNpbmciIHRleHRMZW5ndGg9IjciIHg9IjM1NS45NDkyIiB5PSIzOTYuMjg4NCI+MTwvdGV4dD48dGV4dCBmaWxsPSIjMDAwMDAwIiBmb250LWZhbWlseT0ic2Fucy1zZXJpZiIgZm9udC1zaXplPSIxMyIgbGVuZ3RoQWRqdXN0PSJzcGFjaW5nIiB0ZXh0TGVuZ3RoPSI3IiB4PSIxOTUuMDc5MiIgeT0iNTYxLjQ0OTkiPjE8L3RleHQ+PC9nPjwhLS1saW5rIEFyZWEgdG8gU2VsbGVyLS0+PGcgaWQ9ImxpbmtfQXJlYV9TZWxsZXIiPjxwYXRoIGNvZGVMaW5lPSI5OSIgZD0iTTEzMi4zMSw0MjguNTQgQzE0MS4yNSw0NjguNyAxNTMuNyw1MjQuNjUgMTYzLjk3LDU3MC43NiAiIGZpbGw9Im5vbmUiIGlkPSJBcmVhLVNlbGxlciIgc3R5bGU9InN0cm9rZTojMTgxODE4O3N0cm9rZS13aWR0aDoxLjA7Ii8+PHRleHQgZmlsbD0iIzAwMDAwMCIgZm9udC1mYW1pbHk9InNhbnMtc2VyaWYiIGZvbnQtc2l6ZT0iMTMiIGxlbmd0aEFkanVzdD0ic3BhY2luZyIgdGV4dExlbmd0aD0iNyIgeD0iMTI2LjM3NDciIHk9IjQ0OC42NDgzIj4xPC90ZXh0Pjx0ZXh0IGZpbGw9IiMwMDAwMDAiIGZvbnQtZmFtaWx5PSJzYW5zLXNlcmlmIiBmb250LXNpemU9IjEzIiBsZW5ndGhBZGp1c3Q9InNwYWNpbmciIHRleHRMZW5ndGg9IjciIHg9IjE1NC44NzAzIiB5PSI1NjEuNDQ5OSI+TjwvdGV4dD48L2c+PCEtLWxpbmsgQXJlYSB0byBQYXJjZWwtLT48ZyBpZD0ibGlua19BcmVhX1BhcmNlbCI+PHBhdGggY29kZUxpbmU9IjEwMCIgZD0iTTEwOC42OSw0MjguNTQgQzEwNC4zMiw0NDguMTkgOTkuMSw0NzEuNjEgOTMuNzIsNDk1LjgxICIgZmlsbD0ibm9uZSIgaWQ9IkFyZWEtUGFyY2VsIiBzdHlsZT0ic3Ryb2tlOiMxODE4MTg7c3Ryb2tlLXdpZHRoOjEuMDsiLz48dGV4dCBmaWxsPSIjMDAwMDAwIiBmb250LWZhbWlseT0ic2Fucy1zZXJpZiIgZm9udC1zaXplPSIxMyIgbGVuZ3RoQWRqdXN0PSJzcGFjaW5nIiB0ZXh0TGVuZ3RoPSI3IiB4PSI5OS43Mjg0IiB5PSI0NDguNjQ4MyI+MTwvdGV4dD48dGV4dCBmaWxsPSIjMDAwMDAwIiBmb250LWZhbWlseT0ic2Fucy1zZXJpZiIgZm9udC1zaXplPSIxMyIgbGVuZ3RoQWRqdXN0PSJzcGFjaW5nIiB0ZXh0TGVuZ3RoPSI3IiB4PSI4OC4zNTU2IiB5PSI0ODYuNTg2NSI+TjwvdGV4dD48L2c+PCEtLWxpbmsgVXNlciB0byBTdGFmZi0tPjxnIGlkPSJsaW5rX1VzZXJfU3RhZmYiPjxwYXRoIGNvZGVMaW5lPSIxMDEiIGQ9Ik00MDEuNzUsNDM2LjI3IEMzOTkuMzYsNDc4LjA1IDM5OS4xMSw1MzMuODEgNDAxLjAyLDU3OC40NCAiIGZpbGw9Im5vbmUiIGlkPSJVc2VyLVN0YWZmIiBzdHlsZT0ic3Ryb2tlOiMxODE4MTg7c3Ryb2tlLXdpZHRoOjEuMDsiLz48dGV4dCBmaWxsPSIjMDAwMDAwIiBmb250LWZhbWlseT0ic2Fucy1zZXJpZiIgZm9udC1zaXplPSIxMyIgbGVuZ3RoQWRqdXN0PSJzcGFjaW5nIiB0ZXh0TGVuZ3RoPSI3IiB4PSIzOTMuMTkxNCIgeT0iNDU2LjA4MDQiPjE8L3RleHQ+PHRleHQgZmlsbD0iIzAwMDAwMCIgZm9udC1mYW1pbHk9InNhbnMtc2VyaWYiIGZvbnQtc2l6ZT0iMTMiIGxlbmd0aEFkanVzdD0ic3BhY2luZyIgdGV4dExlbmd0aD0iNyIgeD0iMzkyLjM4MTYiIHk9IjU2OC43MDAzIj4xPC90ZXh0PjwvZz48IS0tbGluayBVc2VyIHRvIFN0YWZmLS0+PGcgaWQ9ImxpbmtfVXNlcl9TdGFmZiI+PHBhdGggY29kZUxpbmU9IjEwMiIgZD0iTTQyMy44OCw0MzYuMjcgQzQyNi40Miw0NzguMDUgNDI2LjY4LDUzMy44MSA0MjQuNjYsNTc4LjQ0ICIgZmlsbD0ibm9uZSIgaWQ9IlVzZXItU3RhZmYtMSIgc3R5bGU9InN0cm9rZTojMTgxODE4O3N0cm9rZS13aWR0aDoxLjA7Ii8+PHRleHQgZmlsbD0iIzAwMDAwMCIgZm9udC1mYW1pbHk9InNhbnMtc2VyaWYiIGZvbnQtc2l6ZT0iMTMiIGxlbmd0aEFkanVzdD0ic3BhY2luZyIgdGV4dExlbmd0aD0iNyIgeD0iNDE3Ljc0MTkiIHk9IjQ1Ni4wODA0Ij4xPC90ZXh0Pjx0ZXh0IGZpbGw9IiMwMDAwMDAiIGZvbnQtZmFtaWx5PSJzYW5zLXNlcmlmIiBmb250LXNpemU9IjEzIiBsZW5ndGhBZGp1c3Q9InNwYWNpbmciIHRleHRMZW5ndGg9IjciIHg9IjQxOC42MDcyIiB5PSI1NjguNzAwMyI+MTwvdGV4dD48L2c+PCEtLWxpbmsgUGFyY2VsIHRvIFBhcmNlbExvZy0tPjxnIGlkPSJsaW5rX1BhcmNlbF9QYXJjZWxMb2ciPjxwYXRoIGNvZGVMaW5lPSIxMDMiIGQ9Ik01OC41LDgxNC4zNyBDNTguNSw4MzUuNDMgNTguNSw4NTUuOSA1OC41LDg3My44ICIgZmlsbD0ibm9uZSIgaWQ9IlBhcmNlbC1QYXJjZWxMb2ciIHN0eWxlPSJzdHJva2U6IzE4MTgxODtzdHJva2Utd2lkdGg6MS4wOyIvPjx0ZXh0IGZpbGw9IiMwMDAwMDAiIGZvbnQtZmFtaWx5PSJzYW5zLXNlcmlmIiBmb250LXNpemU9IjEzIiBsZW5ndGhBZGp1c3Q9InNwYWNpbmciIHRleHRMZW5ndGg9IjciIHg9IjUxLjM0MTQiIHk9IjgzNC4yMDIxIj4xPC90ZXh0Pjx0ZXh0IGZpbGw9IiMwMDAwMDAiIGZvbnQtZmFtaWx5PSJzYW5zLXNlcmlmIiBmb250LXNpemU9IjEzIiBsZW5ndGhBZGp1c3Q9InNwYWNpbmciIHRleHRMZW5ndGg9IjciIHg9IjUxLjA1MTYiIHk9Ijg2NC40MTQ1Ij5OPC90ZXh0PjwvZz48IS0tbGluayBVc2VyIHRvIE90cC0tPjxnIGlkPSJsaW5rX1VzZXJfT3RwIj48cGF0aCBjb2RlTGluZT0iMTA0IiBkPSJNNDM4LjgzLDQzNi4yOCBDNDQ2LjkxLDQ1NS4zMyA0NTUuNzMsNDc2LjQ4IDQ2My41LDQ5NiBDNDc2LjIzLDUyNy45NiA0ODkuNyw1NjMuODcgNTAwLjU1LDU5My4zNyAiIGZpbGw9Im5vbmUiIGlkPSJVc2VyLU90cCIgc3R5bGU9InN0cm9rZTojMTgxODE4O3N0cm9rZS13aWR0aDoxLjA7Ii8+PHRleHQgZmlsbD0iIzAwMDAwMCIgZm9udC1mYW1pbHk9InNhbnMtc2VyaWYiIGZvbnQtc2l6ZT0iMTMiIGxlbmd0aEFkanVzdD0ic3BhY2luZyIgdGV4dExlbmd0aD0iNyIgeD0iNDM0LjMyNyIgeT0iNDU2LjA5MTQiPjE8L3RleHQ+PHRleHQgZmlsbD0iIzAwMDAwMCIgZm9udC1mYW1pbHk9InNhbnMtc2VyaWYiIGZvbnQtc2l6ZT0iMTMiIGxlbmd0aEFkanVzdD0ic3BhY2luZyIgdGV4dExlbmd0aD0iNyIgeD0iNDkwLjI4OTIiIHk9IjU4My45OTM1Ij5OPC90ZXh0PjwvZz48IS0tU1JDPVtUTEJCUmlHVzNCcHA1SVp0RlZHSmdsUE9qUE1nZFlDMlI2QUxOSDFzamJmTF9WU1F5ZTBlcEdLSlVwbXNhejVFOFNmZGswNjJseWVWOElLT0ZneGdPaU1sNDdnazhxTkdMRWZjeGJZV0trZjFuUnhnVU9uTXJWWTl1SFpfWUpPTV8xYVlLWmoza1J4VXhLTTF1cFdvVkJsYXF1WmFCcEw5bWZJMUlzU09fM0x6QXNFWUhJbTQ3elF2VnplTkYwdS1TRllzN0dCTDE3cFpqdEJlbFhHRVhVelRITXJUdUhsNlppeTg5akRnSFJSdHlQeDRpUVdaMTlocW5CbjZHaW1Gb2FFWDd3WENBZ0VINTh0ZjRnOHRld09zaUNuUE5zLUFvY2FTaHlRMS15Y1FMYjdyaWdzRXF6ZWxsWS1SWHZwWTJtNHZremt1OFlyWWFaZ1ZUcmhFd25feTRSZzdRZXl0MmdOVkt3WTBjclZTYjBGSjRaWU5VYlNoRG0tREY5cmF5emdpelhNaFp3all5Z2Q4dmJrSTcxT2x4R2dKSHFHc1RxTG9hOXdhdDlDYVJHd29pc2JzOUZtX2pYclNPT04tMDAwMF0tLT48L2c+PC9zdmc+;" parent="1" vertex="1">
            <mxGeometry x="880" y="600" width="570" height="1003" as="geometry" />
          </mxCell>
        </UserObject>
        <mxCell id="5jvego66JOtNKPKq_Y0C-30" style="edgeStyle=none;rounded=0;orthogonalLoop=1;jettySize=auto;html=1;exitX=0;exitY=0.5;exitDx=0;exitDy=0;entryX=1;entryY=0.5;entryDx=0;entryDy=0;endArrow=none;endFill=0;" parent="1" source="5jvego66JOtNKPKq_Y0C-35" target="5jvego66JOtNKPKq_Y0C-36" edge="1">
          <mxGeometry relative="1" as="geometry" />
        </mxCell>
        <mxCell id="5jvego66JOtNKPKq_Y0C-31" style="edgeStyle=none;rounded=0;orthogonalLoop=1;jettySize=auto;html=1;exitX=0;exitY=0.5;exitDx=0;exitDy=0;entryX=1;entryY=0.5;entryDx=0;entryDy=0;endArrow=none;endFill=0;" parent="1" source="5jvego66JOtNKPKq_Y0C-35" target="5jvego66JOtNKPKq_Y0C-37" edge="1">
          <mxGeometry relative="1" as="geometry" />
        </mxCell>
        <mxCell id="5jvego66JOtNKPKq_Y0C-32" style="edgeStyle=none;rounded=0;orthogonalLoop=1;jettySize=auto;html=1;exitX=0;exitY=0.5;exitDx=0;exitDy=0;entryX=1;entryY=1;entryDx=0;entryDy=0;endArrow=none;endFill=0;" parent="1" source="5jvego66JOtNKPKq_Y0C-35" target="5jvego66JOtNKPKq_Y0C-38" edge="1">
          <mxGeometry relative="1" as="geometry" />
        </mxCell>
        <mxCell id="r4QJUcsgO05k440xnUTR-58" style="edgeStyle=none;rounded=0;orthogonalLoop=1;jettySize=auto;html=1;exitX=0;exitY=0.5;exitDx=0;exitDy=0;entryX=1;entryY=0.5;entryDx=0;entryDy=0;endArrow=none;endFill=0;" edge="1" parent="1" source="5jvego66JOtNKPKq_Y0C-35" target="r4QJUcsgO05k440xnUTR-56">
          <mxGeometry relative="1" as="geometry" />
        </mxCell>
        <mxCell id="r4QJUcsgO05k440xnUTR-59" style="edgeStyle=none;rounded=0;orthogonalLoop=1;jettySize=auto;html=1;exitX=0;exitY=0.5;exitDx=0;exitDy=0;entryX=1;entryY=0.5;entryDx=0;entryDy=0;endArrow=none;endFill=0;" edge="1" parent="1" source="5jvego66JOtNKPKq_Y0C-35" target="r4QJUcsgO05k440xnUTR-57">
          <mxGeometry relative="1" as="geometry" />
        </mxCell>
        <mxCell id="r4QJUcsgO05k440xnUTR-81" style="edgeStyle=orthogonalEdgeStyle;rounded=0;orthogonalLoop=1;jettySize=auto;html=1;exitX=0.75;exitY=1;exitDx=0;exitDy=0;startArrow=ERoneToMany;startFill=0;endArrow=none;endFill=0;entryX=0.5;entryY=0;entryDx=0;entryDy=0;" edge="1" parent="1" source="5jvego66JOtNKPKq_Y0C-35" target="r4QJUcsgO05k440xnUTR-79">
          <mxGeometry relative="1" as="geometry">
            <Array as="points">
              <mxPoint x="245" y="820" />
              <mxPoint x="280" y="820" />
              <mxPoint x="280" y="1100" />
            </Array>
          </mxGeometry>
        </mxCell>
        <mxCell id="5jvego66JOtNKPKq_Y0C-35" value="staff" style="rounded=0;whiteSpace=wrap;html=1;" parent="1" vertex="1">
          <mxGeometry x="185" y="757.5" width="80" height="40" as="geometry" />
        </mxCell>
        <mxCell id="5jvego66JOtNKPKq_Y0C-36" value="&lt;u&gt;id&lt;/u&gt;" style="ellipse;whiteSpace=wrap;html=1;" parent="1" vertex="1">
          <mxGeometry x="59" y="710" width="70" height="30" as="geometry" />
        </mxCell>
        <mxCell id="5jvego66JOtNKPKq_Y0C-37" value="name" style="ellipse;whiteSpace=wrap;html=1;" parent="1" vertex="1">
          <mxGeometry x="53" y="740" width="70" height="30" as="geometry" />
        </mxCell>
        <mxCell id="5jvego66JOtNKPKq_Y0C-38" value="email" style="ellipse;whiteSpace=wrap;html=1;" parent="1" vertex="1">
          <mxGeometry x="53" y="770" width="70" height="30" as="geometry" />
        </mxCell>
        <mxCell id="5jvego66JOtNKPKq_Y0C-40" style="edgeStyle=none;rounded=0;orthogonalLoop=1;jettySize=auto;html=1;exitX=1;exitY=0.5;exitDx=0;exitDy=0;entryX=0;entryY=1;entryDx=0;entryDy=0;endArrow=none;endFill=0;" parent="1" target="5jvego66JOtNKPKq_Y0C-53" edge="1">
          <mxGeometry relative="1" as="geometry">
            <mxPoint x="461" y="1015" as="sourcePoint" />
          </mxGeometry>
        </mxCell>
        <mxCell id="5jvego66JOtNKPKq_Y0C-41" style="edgeStyle=none;rounded=0;orthogonalLoop=1;jettySize=auto;html=1;exitX=1;exitY=0.5;exitDx=0;exitDy=0;entryX=0;entryY=1;entryDx=0;entryDy=0;endArrow=none;endFill=0;" parent="1" target="5jvego66JOtNKPKq_Y0C-55" edge="1">
          <mxGeometry relative="1" as="geometry">
            <mxPoint x="461" y="1015" as="sourcePoint" />
          </mxGeometry>
        </mxCell>
        <mxCell id="5jvego66JOtNKPKq_Y0C-42" style="edgeStyle=none;rounded=0;orthogonalLoop=1;jettySize=auto;html=1;exitX=1;exitY=0.5;exitDx=0;exitDy=0;endArrow=none;endFill=0;" parent="1" target="5jvego66JOtNKPKq_Y0C-56" edge="1">
          <mxGeometry relative="1" as="geometry">
            <mxPoint x="461" y="1015" as="sourcePoint" />
          </mxGeometry>
        </mxCell>
        <mxCell id="5jvego66JOtNKPKq_Y0C-43" style="edgeStyle=none;rounded=0;orthogonalLoop=1;jettySize=auto;html=1;exitX=1;exitY=0.5;exitDx=0;exitDy=0;endArrow=none;endFill=0;" parent="1" target="5jvego66JOtNKPKq_Y0C-57" edge="1">
          <mxGeometry relative="1" as="geometry">
            <mxPoint x="461" y="1015" as="sourcePoint" />
          </mxGeometry>
        </mxCell>
        <mxCell id="5jvego66JOtNKPKq_Y0C-44" style="edgeStyle=none;rounded=0;orthogonalLoop=1;jettySize=auto;html=1;exitX=1;exitY=0.5;exitDx=0;exitDy=0;entryX=0;entryY=0.5;entryDx=0;entryDy=0;endArrow=none;endFill=0;" parent="1" target="5jvego66JOtNKPKq_Y0C-58" edge="1">
          <mxGeometry relative="1" as="geometry">
            <mxPoint x="461" y="1015" as="sourcePoint" />
          </mxGeometry>
        </mxCell>
        <mxCell id="5jvego66JOtNKPKq_Y0C-45" style="edgeStyle=none;rounded=0;orthogonalLoop=1;jettySize=auto;html=1;exitX=1;exitY=0.5;exitDx=0;exitDy=0;entryX=0;entryY=0.5;entryDx=0;entryDy=0;endArrow=none;endFill=0;" parent="1" target="5jvego66JOtNKPKq_Y0C-59" edge="1">
          <mxGeometry relative="1" as="geometry">
            <mxPoint x="461" y="1015" as="sourcePoint" />
          </mxGeometry>
        </mxCell>
        <mxCell id="5jvego66JOtNKPKq_Y0C-46" style="edgeStyle=none;rounded=0;orthogonalLoop=1;jettySize=auto;html=1;exitX=1;exitY=0.5;exitDx=0;exitDy=0;entryX=0;entryY=0.5;entryDx=0;entryDy=0;endArrow=none;endFill=0;" parent="1" target="5jvego66JOtNKPKq_Y0C-60" edge="1">
          <mxGeometry relative="1" as="geometry">
            <mxPoint x="461" y="1015" as="sourcePoint" />
          </mxGeometry>
        </mxCell>
        <mxCell id="5jvego66JOtNKPKq_Y0C-47" style="edgeStyle=none;rounded=0;orthogonalLoop=1;jettySize=auto;html=1;exitX=1;exitY=0.5;exitDx=0;exitDy=0;entryX=0;entryY=0.5;entryDx=0;entryDy=0;endArrow=none;endFill=0;" parent="1" target="5jvego66JOtNKPKq_Y0C-61" edge="1">
          <mxGeometry relative="1" as="geometry">
            <mxPoint x="461" y="1015" as="sourcePoint" />
          </mxGeometry>
        </mxCell>
        <mxCell id="5jvego66JOtNKPKq_Y0C-48" style="edgeStyle=none;rounded=0;orthogonalLoop=1;jettySize=auto;html=1;exitX=1;exitY=0.5;exitDx=0;exitDy=0;entryX=0;entryY=0.5;entryDx=0;entryDy=0;endArrow=none;endFill=0;" parent="1" target="5jvego66JOtNKPKq_Y0C-62" edge="1">
          <mxGeometry relative="1" as="geometry">
            <mxPoint x="461" y="1015" as="sourcePoint" />
          </mxGeometry>
        </mxCell>
        <mxCell id="5jvego66JOtNKPKq_Y0C-49" style="edgeStyle=none;rounded=0;orthogonalLoop=1;jettySize=auto;html=1;exitX=1;exitY=0.5;exitDx=0;exitDy=0;entryX=0;entryY=0.5;entryDx=0;entryDy=0;endArrow=none;endFill=0;" parent="1" target="5jvego66JOtNKPKq_Y0C-63" edge="1">
          <mxGeometry relative="1" as="geometry">
            <mxPoint x="461" y="1015" as="sourcePoint" />
          </mxGeometry>
        </mxCell>
        <mxCell id="5jvego66JOtNKPKq_Y0C-50" style="edgeStyle=none;rounded=0;orthogonalLoop=1;jettySize=auto;html=1;exitX=1;exitY=0.5;exitDx=0;exitDy=0;entryX=0;entryY=0.5;entryDx=0;entryDy=0;endArrow=none;endFill=0;" parent="1" target="5jvego66JOtNKPKq_Y0C-64" edge="1">
          <mxGeometry relative="1" as="geometry">
            <mxPoint x="461" y="1015" as="sourcePoint" />
          </mxGeometry>
        </mxCell>
        <mxCell id="r4QJUcsgO05k440xnUTR-3" style="rounded=0;orthogonalLoop=1;jettySize=auto;html=1;exitX=1;exitY=0.5;exitDx=0;exitDy=0;entryX=0;entryY=0.5;entryDx=0;entryDy=0;endArrow=none;endFill=0;" edge="1" parent="1" source="5jvego66JOtNKPKq_Y0C-52" target="r4QJUcsgO05k440xnUTR-1">
          <mxGeometry relative="1" as="geometry" />
        </mxCell>
        <mxCell id="5jvego66JOtNKPKq_Y0C-52" value="Parcel" style="rounded=0;whiteSpace=wrap;html=1;" parent="1" vertex="1">
          <mxGeometry x="381" y="998" width="80" height="40" as="geometry" />
        </mxCell>
        <mxCell id="5jvego66JOtNKPKq_Y0C-53" value="&lt;u&gt;id&lt;/u&gt;" style="ellipse;whiteSpace=wrap;html=1;" parent="1" vertex="1">
          <mxGeometry x="496" y="847" width="70" height="30" as="geometry" />
        </mxCell>
        <mxCell id="5jvego66JOtNKPKq_Y0C-54" value="category" style="ellipse;whiteSpace=wrap;html=1;" parent="1" vertex="1">
          <mxGeometry x="518" y="869" width="70" height="30" as="geometry" />
        </mxCell>
        <mxCell id="5jvego66JOtNKPKq_Y0C-55" value="description" style="ellipse;whiteSpace=wrap;html=1;" parent="1" vertex="1">
          <mxGeometry x="538" y="887" width="70" height="30" as="geometry" />
        </mxCell>
        <mxCell id="5jvego66JOtNKPKq_Y0C-56" value="weight" style="ellipse;whiteSpace=wrap;html=1;" parent="1" vertex="1">
          <mxGeometry x="548" y="910" width="70" height="30" as="geometry" />
        </mxCell>
        <mxCell id="5jvego66JOtNKPKq_Y0C-57" value="address" style="ellipse;whiteSpace=wrap;html=1;" parent="1" vertex="1">
          <mxGeometry x="557" y="934" width="70" height="30" as="geometry" />
        </mxCell>
        <mxCell id="5jvego66JOtNKPKq_Y0C-58" value="status" style="ellipse;whiteSpace=wrap;html=1;" parent="1" vertex="1">
          <mxGeometry x="566" y="959" width="74" height="30" as="geometry" />
        </mxCell>
        <mxCell id="5jvego66JOtNKPKq_Y0C-59" value="product_price" style="ellipse;whiteSpace=wrap;html=1;" parent="1" vertex="1">
          <mxGeometry x="566" y="982" width="90" height="30" as="geometry" />
        </mxCell>
        <mxCell id="5jvego66JOtNKPKq_Y0C-60" value="cod" style="ellipse;whiteSpace=wrap;html=1;" parent="1" vertex="1">
          <mxGeometry x="572" y="1006.5" width="70" height="30" as="geometry" />
        </mxCell>
        <mxCell id="5jvego66JOtNKPKq_Y0C-61" value="charge" style="ellipse;whiteSpace=wrap;html=1;" parent="1" vertex="1">
          <mxGeometry x="566" y="1030.5" width="70" height="30" as="geometry" />
        </mxCell>
        <mxCell id="5jvego66JOtNKPKq_Y0C-62" value="cash" style="ellipse;whiteSpace=wrap;html=1;" parent="1" vertex="1">
          <mxGeometry x="572" y="1054.5" width="98" height="30" as="geometry" />
        </mxCell>
        <mxCell id="5jvego66JOtNKPKq_Y0C-63" value="created_at" style="ellipse;whiteSpace=wrap;html=1;" parent="1" vertex="1">
          <mxGeometry x="556" y="1076.5" width="104" height="30" as="geometry" />
        </mxCell>
        <mxCell id="5jvego66JOtNKPKq_Y0C-64" value="phone" style="ellipse;whiteSpace=wrap;html=1;" parent="1" vertex="1">
          <mxGeometry x="548" y="1105" width="70" height="30" as="geometry" />
        </mxCell>
        <mxCell id="5jvego66JOtNKPKq_Y0C-67" style="edgeStyle=none;rounded=0;orthogonalLoop=1;jettySize=auto;html=1;exitX=1;exitY=0.5;exitDx=0;exitDy=0;entryX=0.114;entryY=0.667;entryDx=0;entryDy=0;entryPerimeter=0;endArrow=none;endFill=0;" parent="1" target="5jvego66JOtNKPKq_Y0C-54" edge="1">
          <mxGeometry relative="1" as="geometry">
            <mxPoint x="461" y="1015" as="sourcePoint" />
          </mxGeometry>
        </mxCell>
        <mxCell id="r4QJUcsgO05k440xnUTR-49" style="edgeStyle=none;rounded=0;orthogonalLoop=1;jettySize=auto;html=1;exitX=0.5;exitY=0;exitDx=0;exitDy=0;endArrow=none;endFill=0;" edge="1" parent="1" source="5jvego66JOtNKPKq_Y0C-74" target="r4QJUcsgO05k440xnUTR-43">
          <mxGeometry relative="1" as="geometry" />
        </mxCell>
        <mxCell id="r4QJUcsgO05k440xnUTR-50" style="edgeStyle=none;rounded=0;orthogonalLoop=1;jettySize=auto;html=1;exitX=0.5;exitY=0;exitDx=0;exitDy=0;endArrow=none;endFill=0;" edge="1" parent="1" source="5jvego66JOtNKPKq_Y0C-74" target="r4QJUcsgO05k440xnUTR-44">
          <mxGeometry relative="1" as="geometry" />
        </mxCell>
        <mxCell id="r4QJUcsgO05k440xnUTR-52" style="edgeStyle=none;rounded=0;orthogonalLoop=1;jettySize=auto;html=1;exitX=0.5;exitY=0;exitDx=0;exitDy=0;endArrow=none;endFill=0;" edge="1" parent="1" source="5jvego66JOtNKPKq_Y0C-74" target="r4QJUcsgO05k440xnUTR-48">
          <mxGeometry relative="1" as="geometry" />
        </mxCell>
        <mxCell id="r4QJUcsgO05k440xnUTR-53" style="edgeStyle=none;rounded=0;orthogonalLoop=1;jettySize=auto;html=1;exitX=0.5;exitY=0;exitDx=0;exitDy=0;entryX=0.5;entryY=1;entryDx=0;entryDy=0;endArrow=none;endFill=0;" edge="1" parent="1" source="5jvego66JOtNKPKq_Y0C-74" target="r4QJUcsgO05k440xnUTR-47">
          <mxGeometry relative="1" as="geometry" />
        </mxCell>
        <mxCell id="5jvego66JOtNKPKq_Y0C-74" value="Customer" style="rounded=0;whiteSpace=wrap;html=1;" parent="1" vertex="1">
          <mxGeometry x="310" y="757.5" width="80" height="40" as="geometry" />
        </mxCell>
        <mxCell id="r4QJUcsgO05k440xnUTR-12" style="edgeStyle=none;rounded=0;orthogonalLoop=1;jettySize=auto;html=1;exitX=0.5;exitY=1;exitDx=0;exitDy=0;entryX=0.5;entryY=0;entryDx=0;entryDy=0;endArrow=none;endFill=0;" edge="1" parent="1" source="5jvego66JOtNKPKq_Y0C-79" target="5jvego66JOtNKPKq_Y0C-81">
          <mxGeometry relative="1" as="geometry" />
        </mxCell>
        <mxCell id="r4QJUcsgO05k440xnUTR-13" style="edgeStyle=none;rounded=0;orthogonalLoop=1;jettySize=auto;html=1;exitX=0.5;exitY=1;exitDx=0;exitDy=0;entryX=1;entryY=0;entryDx=0;entryDy=0;endArrow=none;endFill=0;" edge="1" parent="1" source="5jvego66JOtNKPKq_Y0C-79" target="r4QJUcsgO05k440xnUTR-11">
          <mxGeometry relative="1" as="geometry" />
        </mxCell>
        <mxCell id="r4QJUcsgO05k440xnUTR-25" style="edgeStyle=orthogonalEdgeStyle;rounded=0;orthogonalLoop=1;jettySize=auto;html=1;exitX=0;exitY=0.5;exitDx=0;exitDy=0;endArrow=none;endFill=0;startArrow=ERoneToMany;startFill=0;" edge="1" parent="1" source="5jvego66JOtNKPKq_Y0C-79" target="r4QJUcsgO05k440xnUTR-24">
          <mxGeometry relative="1" as="geometry" />
        </mxCell>
        <mxCell id="5jvego66JOtNKPKq_Y0C-79" value="District" style="rounded=0;whiteSpace=wrap;html=1;" parent="1" vertex="1">
          <mxGeometry x="141" y="1239.5" width="80" height="40" as="geometry" />
        </mxCell>
        <mxCell id="5jvego66JOtNKPKq_Y0C-85" style="rounded=0;orthogonalLoop=1;jettySize=auto;html=1;exitX=0.5;exitY=1;exitDx=0;exitDy=0;endArrow=none;endFill=0;" parent="1" source="5jvego66JOtNKPKq_Y0C-80" target="5jvego66JOtNKPKq_Y0C-83" edge="1">
          <mxGeometry relative="1" as="geometry" />
        </mxCell>
        <mxCell id="5jvego66JOtNKPKq_Y0C-86" style="edgeStyle=none;rounded=0;orthogonalLoop=1;jettySize=auto;html=1;exitX=0.5;exitY=1;exitDx=0;exitDy=0;endArrow=none;endFill=0;" parent="1" source="5jvego66JOtNKPKq_Y0C-80" target="5jvego66JOtNKPKq_Y0C-84" edge="1">
          <mxGeometry relative="1" as="geometry" />
        </mxCell>
        <mxCell id="r4QJUcsgO05k440xnUTR-10" style="edgeStyle=none;rounded=0;orthogonalLoop=1;jettySize=auto;html=1;exitX=0.5;exitY=1;exitDx=0;exitDy=0;entryX=0.5;entryY=0;entryDx=0;entryDy=0;endArrow=none;endFill=0;" edge="1" parent="1" source="5jvego66JOtNKPKq_Y0C-80">
          <mxGeometry relative="1" as="geometry">
            <mxPoint x="376" y="1327.5" as="targetPoint" />
          </mxGeometry>
        </mxCell>
        <mxCell id="r4QJUcsgO05k440xnUTR-20" style="edgeStyle=orthogonalEdgeStyle;rounded=0;orthogonalLoop=1;jettySize=auto;html=1;exitX=0;exitY=0.5;exitDx=0;exitDy=0;endArrow=none;endFill=0;startArrow=ERoneToMany;startFill=0;" edge="1" parent="1" source="5jvego66JOtNKPKq_Y0C-80" target="r4QJUcsgO05k440xnUTR-19">
          <mxGeometry relative="1" as="geometry" />
        </mxCell>
        <mxCell id="5jvego66JOtNKPKq_Y0C-80" value="Area" style="rounded=0;whiteSpace=wrap;html=1;" parent="1" vertex="1">
          <mxGeometry x="358" y="1239.5" width="80" height="40" as="geometry" />
        </mxCell>
        <mxCell id="5jvego66JOtNKPKq_Y0C-81" value="name" style="ellipse;whiteSpace=wrap;html=1;" parent="1" vertex="1">
          <mxGeometry x="129" y="1326.5" width="70" height="30" as="geometry" />
        </mxCell>
        <mxCell id="5jvego66JOtNKPKq_Y0C-82" value="&lt;u&gt;id&lt;/u&gt;" style="ellipse;whiteSpace=wrap;html=1;" parent="1" vertex="1">
          <mxGeometry x="179" y="1309" width="70" height="30" as="geometry" />
        </mxCell>
        <mxCell id="5jvego66JOtNKPKq_Y0C-83" value="name" style="ellipse;whiteSpace=wrap;html=1;" parent="1" vertex="1">
          <mxGeometry x="363" y="1339" width="70" height="30" as="geometry" />
        </mxCell>
        <mxCell id="5jvego66JOtNKPKq_Y0C-84" value="&lt;u&gt;id&lt;/u&gt;" style="ellipse;whiteSpace=wrap;html=1;" parent="1" vertex="1">
          <mxGeometry x="414.5" y="1320.5" width="70" height="30" as="geometry" />
        </mxCell>
        <mxCell id="5jvego66JOtNKPKq_Y0C-87" style="edgeStyle=none;rounded=0;orthogonalLoop=1;jettySize=auto;html=1;exitX=0.5;exitY=1;exitDx=0;exitDy=0;entryX=0.671;entryY=0.067;entryDx=0;entryDy=0;entryPerimeter=0;endArrow=none;endFill=0;" parent="1" source="5jvego66JOtNKPKq_Y0C-79" target="5jvego66JOtNKPKq_Y0C-81" edge="1">
          <mxGeometry relative="1" as="geometry" />
        </mxCell>
        <mxCell id="5jvego66JOtNKPKq_Y0C-88" style="edgeStyle=none;rounded=0;orthogonalLoop=1;jettySize=auto;html=1;exitX=0.5;exitY=1;exitDx=0;exitDy=0;entryX=0.6;entryY=0.033;entryDx=0;entryDy=0;entryPerimeter=0;endArrow=none;endFill=0;" parent="1" source="5jvego66JOtNKPKq_Y0C-79" target="5jvego66JOtNKPKq_Y0C-82" edge="1">
          <mxGeometry relative="1" as="geometry" />
        </mxCell>
        <mxCell id="r4QJUcsgO05k440xnUTR-37" style="edgeStyle=none;rounded=0;orthogonalLoop=1;jettySize=auto;html=1;exitX=1;exitY=0.5;exitDx=0;exitDy=0;entryX=0;entryY=0.5;entryDx=0;entryDy=0;endArrow=none;endFill=0;" edge="1" parent="1" source="5jvego66JOtNKPKq_Y0C-90" target="r4QJUcsgO05k440xnUTR-31">
          <mxGeometry relative="1" as="geometry" />
        </mxCell>
        <mxCell id="r4QJUcsgO05k440xnUTR-38" style="edgeStyle=none;rounded=0;orthogonalLoop=1;jettySize=auto;html=1;exitX=1;exitY=0.5;exitDx=0;exitDy=0;entryX=0;entryY=0.5;entryDx=0;entryDy=0;endArrow=none;endFill=0;" edge="1" parent="1" source="5jvego66JOtNKPKq_Y0C-90" target="r4QJUcsgO05k440xnUTR-32">
          <mxGeometry relative="1" as="geometry" />
        </mxCell>
        <mxCell id="r4QJUcsgO05k440xnUTR-39" style="edgeStyle=none;rounded=0;orthogonalLoop=1;jettySize=auto;html=1;exitX=1;exitY=0.5;exitDx=0;exitDy=0;entryX=0;entryY=0.5;entryDx=0;entryDy=0;endArrow=none;endFill=0;" edge="1" parent="1" source="5jvego66JOtNKPKq_Y0C-90" target="r4QJUcsgO05k440xnUTR-33">
          <mxGeometry relative="1" as="geometry" />
        </mxCell>
        <mxCell id="r4QJUcsgO05k440xnUTR-40" style="edgeStyle=none;rounded=0;orthogonalLoop=1;jettySize=auto;html=1;exitX=1;exitY=0.5;exitDx=0;exitDy=0;entryX=0;entryY=0.5;entryDx=0;entryDy=0;endArrow=none;endFill=0;" edge="1" parent="1" source="5jvego66JOtNKPKq_Y0C-90" target="r4QJUcsgO05k440xnUTR-34">
          <mxGeometry relative="1" as="geometry" />
        </mxCell>
        <mxCell id="5jvego66JOtNKPKq_Y0C-90" value="Seller" style="rounded=0;whiteSpace=wrap;html=1;" parent="1" vertex="1">
          <mxGeometry x="438" y="757.5" width="80" height="40" as="geometry" />
        </mxCell>
        <mxCell id="5jvego66JOtNKPKq_Y0C-102" style="rounded=0;orthogonalLoop=1;jettySize=auto;html=1;exitX=0.5;exitY=1;exitDx=0;exitDy=0;endArrow=none;endFill=0;" parent="1" source="5jvego66JOtNKPKq_Y0C-104" target="5jvego66JOtNKPKq_Y0C-105" edge="1">
          <mxGeometry relative="1" as="geometry" />
        </mxCell>
        <mxCell id="5jvego66JOtNKPKq_Y0C-103" style="edgeStyle=none;rounded=0;orthogonalLoop=1;jettySize=auto;html=1;exitX=0.5;exitY=1;exitDx=0;exitDy=0;endArrow=none;endFill=0;" parent="1" source="5jvego66JOtNKPKq_Y0C-104" target="5jvego66JOtNKPKq_Y0C-106" edge="1">
          <mxGeometry relative="1" as="geometry" />
        </mxCell>
        <mxCell id="r4QJUcsgO05k440xnUTR-6" style="rounded=0;orthogonalLoop=1;jettySize=auto;html=1;exitX=0.5;exitY=1;exitDx=0;exitDy=0;entryX=0.5;entryY=0;entryDx=0;entryDy=0;endArrow=none;endFill=0;" edge="1" parent="1" source="5jvego66JOtNKPKq_Y0C-104" target="r4QJUcsgO05k440xnUTR-5">
          <mxGeometry relative="1" as="geometry">
            <mxPoint x="536" y="1231.5" as="sourcePoint" />
          </mxGeometry>
        </mxCell>
        <mxCell id="r4QJUcsgO05k440xnUTR-7" style="edgeStyle=none;rounded=0;orthogonalLoop=1;jettySize=auto;html=1;exitX=0.5;exitY=1;exitDx=0;exitDy=0;endArrow=none;endFill=0;entryX=0.5;entryY=0;entryDx=0;entryDy=0;" edge="1" parent="1" source="5jvego66JOtNKPKq_Y0C-104" target="r4QJUcsgO05k440xnUTR-4">
          <mxGeometry relative="1" as="geometry">
            <mxPoint x="536" y="1231.5" as="sourcePoint" />
            <mxPoint x="540.0004079137104" y="1291.5061187056563" as="targetPoint" />
          </mxGeometry>
        </mxCell>
        <mxCell id="5jvego66JOtNKPKq_Y0C-104" value="ParcelLog" style="rounded=0;whiteSpace=wrap;html=1;" parent="1" vertex="1">
          <mxGeometry x="496" y="1222.5" width="80" height="40" as="geometry" />
        </mxCell>
        <mxCell id="5jvego66JOtNKPKq_Y0C-105" value="title" style="ellipse;whiteSpace=wrap;html=1;" parent="1" vertex="1">
          <mxGeometry x="568" y="1303.5" width="70" height="30" as="geometry" />
        </mxCell>
        <mxCell id="5jvego66JOtNKPKq_Y0C-106" value="&lt;u&gt;id&lt;/u&gt;" style="ellipse;whiteSpace=wrap;html=1;" parent="1" vertex="1">
          <mxGeometry x="576" y="1273.5" width="70" height="30" as="geometry" />
        </mxCell>
        <mxCell id="5jvego66JOtNKPKq_Y0C-118" style="edgeStyle=orthogonalEdgeStyle;rounded=0;orthogonalLoop=1;jettySize=auto;html=1;exitX=0.5;exitY=1;exitDx=0;exitDy=0;endArrow=ERoneToMany;endFill=0;" parent="1" source="5jvego66JOtNKPKq_Y0C-116" target="5jvego66JOtNKPKq_Y0C-104" edge="1">
          <mxGeometry relative="1" as="geometry" />
        </mxCell>
        <mxCell id="r4QJUcsgO05k440xnUTR-78" style="edgeStyle=orthogonalEdgeStyle;rounded=0;orthogonalLoop=1;jettySize=auto;html=1;exitX=0.5;exitY=0;exitDx=0;exitDy=0;entryX=0.5;entryY=1;entryDx=0;entryDy=0;endArrow=ERone;endFill=0;" edge="1" parent="1" source="5jvego66JOtNKPKq_Y0C-116" target="5jvego66JOtNKPKq_Y0C-52">
          <mxGeometry relative="1" as="geometry" />
        </mxCell>
        <mxCell id="5jvego66JOtNKPKq_Y0C-116" value="has" style="rhombus;whiteSpace=wrap;html=1;" parent="1" vertex="1">
          <mxGeometry x="410" y="1100" width="60" height="40" as="geometry" />
        </mxCell>
        <mxCell id="r4QJUcsgO05k440xnUTR-65" style="edgeStyle=orthogonalEdgeStyle;rounded=0;orthogonalLoop=1;jettySize=auto;html=1;exitX=0.5;exitY=1;exitDx=0;exitDy=0;entryX=0.85;entryY=-0.025;entryDx=0;entryDy=0;entryPerimeter=0;endArrow=ERone;endFill=0;" edge="1" parent="1" source="5jvego66JOtNKPKq_Y0C-124" target="hk00Rdq8uAhm8ICl378K-7">
          <mxGeometry relative="1" as="geometry">
            <mxPoint x="240" y="960" as="targetPoint" />
            <Array as="points">
              <mxPoint x="403" y="930" />
              <mxPoint x="240" y="930" />
            </Array>
          </mxGeometry>
        </mxCell>
        <mxCell id="5jvego66JOtNKPKq_Y0C-124" value="is" style="rhombus;whiteSpace=wrap;html=1;" parent="1" vertex="1">
          <mxGeometry x="372" y="847" width="70" height="40" as="geometry" />
        </mxCell>
        <mxCell id="5jvego66JOtNKPKq_Y0C-130" style="edgeStyle=orthogonalEdgeStyle;rounded=0;orthogonalLoop=1;jettySize=auto;html=1;exitX=0.5;exitY=1;exitDx=0;exitDy=0;endArrow=ERone;endFill=0;" parent="1" source="5jvego66JOtNKPKq_Y0C-127" target="hk00Rdq8uAhm8ICl378K-7" edge="1">
          <mxGeometry relative="1" as="geometry" />
        </mxCell>
        <mxCell id="r4QJUcsgO05k440xnUTR-61" style="edgeStyle=orthogonalEdgeStyle;rounded=0;orthogonalLoop=1;jettySize=auto;html=1;exitX=0.5;exitY=0;exitDx=0;exitDy=0;entryX=0.5;entryY=1;entryDx=0;entryDy=0;endArrow=ERone;endFill=0;" edge="1" parent="1" source="5jvego66JOtNKPKq_Y0C-127" target="5jvego66JOtNKPKq_Y0C-35">
          <mxGeometry relative="1" as="geometry" />
        </mxCell>
        <mxCell id="5jvego66JOtNKPKq_Y0C-127" value="is" style="rhombus;whiteSpace=wrap;html=1;" parent="1" vertex="1">
          <mxGeometry x="167" y="847" width="90" height="40" as="geometry" />
        </mxCell>
        <mxCell id="5jvego66JOtNKPKq_Y0C-135" style="edgeStyle=orthogonalEdgeStyle;rounded=0;orthogonalLoop=1;jettySize=auto;html=1;exitX=0.5;exitY=1;exitDx=0;exitDy=0;entryX=0.75;entryY=0;entryDx=0;entryDy=0;endArrow=ERone;endFill=0;" parent="1" source="5jvego66JOtNKPKq_Y0C-129" target="hk00Rdq8uAhm8ICl378K-7" edge="1">
          <mxGeometry relative="1" as="geometry">
            <Array as="points">
              <mxPoint x="325" y="920" />
              <mxPoint x="232" y="920" />
            </Array>
          </mxGeometry>
        </mxCell>
        <mxCell id="r4QJUcsgO05k440xnUTR-62" style="edgeStyle=orthogonalEdgeStyle;rounded=0;orthogonalLoop=1;jettySize=auto;html=1;exitX=0.5;exitY=0;exitDx=0;exitDy=0;endArrow=ERone;endFill=0;" edge="1" parent="1" source="5jvego66JOtNKPKq_Y0C-129" target="5jvego66JOtNKPKq_Y0C-74">
          <mxGeometry relative="1" as="geometry" />
        </mxCell>
        <mxCell id="5jvego66JOtNKPKq_Y0C-129" value="is" style="rhombus;whiteSpace=wrap;html=1;" parent="1" vertex="1">
          <mxGeometry x="291" y="847" width="68" height="40" as="geometry" />
        </mxCell>
        <mxCell id="r4QJUcsgO05k440xnUTR-1" value="name" style="ellipse;whiteSpace=wrap;html=1;" vertex="1" parent="1">
          <mxGeometry x="538" y="1130" width="70" height="30" as="geometry" />
        </mxCell>
        <mxCell id="r4QJUcsgO05k440xnUTR-4" value="description" style="ellipse;whiteSpace=wrap;html=1;" vertex="1" parent="1">
          <mxGeometry x="518" y="1320.5" width="70" height="30" as="geometry" />
        </mxCell>
        <mxCell id="r4QJUcsgO05k440xnUTR-5" value="created_at" style="ellipse;whiteSpace=wrap;html=1;" vertex="1" parent="1">
          <mxGeometry x="468" y="1296.5" width="70" height="30" as="geometry" />
        </mxCell>
        <mxCell id="r4QJUcsgO05k440xnUTR-29" style="edgeStyle=none;rounded=0;orthogonalLoop=1;jettySize=auto;html=1;exitX=0;exitY=0.5;exitDx=0;exitDy=0;entryX=1;entryY=0.5;entryDx=0;entryDy=0;endArrow=none;endFill=0;" edge="1" parent="1" source="r4QJUcsgO05k440xnUTR-8" target="r4QJUcsgO05k440xnUTR-15">
          <mxGeometry relative="1" as="geometry" />
        </mxCell>
        <mxCell id="r4QJUcsgO05k440xnUTR-30" style="edgeStyle=none;rounded=0;orthogonalLoop=1;jettySize=auto;html=1;exitX=0;exitY=0.5;exitDx=0;exitDy=0;entryX=1;entryY=0.5;entryDx=0;entryDy=0;endArrow=none;endFill=0;" edge="1" parent="1" source="r4QJUcsgO05k440xnUTR-8" target="r4QJUcsgO05k440xnUTR-14">
          <mxGeometry relative="1" as="geometry" />
        </mxCell>
        <mxCell id="r4QJUcsgO05k440xnUTR-8" value="Division" style="rounded=0;whiteSpace=wrap;html=1;" vertex="1" parent="1">
          <mxGeometry x="128" y="1133.5" width="80" height="40" as="geometry" />
        </mxCell>
        <mxCell id="r4QJUcsgO05k440xnUTR-9" value="charge" style="ellipse;whiteSpace=wrap;html=1;" vertex="1" parent="1">
          <mxGeometry x="310" y="1326.5" width="70" height="30" as="geometry" />
        </mxCell>
        <mxCell id="r4QJUcsgO05k440xnUTR-11" value="charge" style="ellipse;whiteSpace=wrap;html=1;" vertex="1" parent="1">
          <mxGeometry x="81" y="1309" width="70" height="30" as="geometry" />
        </mxCell>
        <mxCell id="r4QJUcsgO05k440xnUTR-14" value="name" style="ellipse;whiteSpace=wrap;html=1;" vertex="1" parent="1">
          <mxGeometry x="19.5" y="1169" width="70" height="30" as="geometry" />
        </mxCell>
        <mxCell id="r4QJUcsgO05k440xnUTR-15" value="&lt;u&gt;id&lt;/u&gt;" style="ellipse;whiteSpace=wrap;html=1;" vertex="1" parent="1">
          <mxGeometry x="21" y="1130" width="70" height="30" as="geometry" />
        </mxCell>
        <mxCell id="r4QJUcsgO05k440xnUTR-23" style="edgeStyle=orthogonalEdgeStyle;rounded=0;orthogonalLoop=1;jettySize=auto;html=1;exitX=0;exitY=0.5;exitDx=0;exitDy=0;endArrow=ERone;endFill=0;" edge="1" parent="1" source="r4QJUcsgO05k440xnUTR-19" target="5jvego66JOtNKPKq_Y0C-79">
          <mxGeometry relative="1" as="geometry" />
        </mxCell>
        <mxCell id="r4QJUcsgO05k440xnUTR-19" value="in" style="rhombus;whiteSpace=wrap;html=1;" vertex="1" parent="1">
          <mxGeometry x="257" y="1242.75" width="67" height="33.5" as="geometry" />
        </mxCell>
        <mxCell id="r4QJUcsgO05k440xnUTR-26" style="edgeStyle=orthogonalEdgeStyle;rounded=0;orthogonalLoop=1;jettySize=auto;html=1;endArrow=ERone;endFill=0;exitX=0.5;exitY=0;exitDx=0;exitDy=0;" edge="1" parent="1" source="r4QJUcsgO05k440xnUTR-24" target="r4QJUcsgO05k440xnUTR-8">
          <mxGeometry relative="1" as="geometry">
            <mxPoint x="56" y="1270" as="sourcePoint" />
          </mxGeometry>
        </mxCell>
        <mxCell id="r4QJUcsgO05k440xnUTR-24" value="in" style="rhombus;whiteSpace=wrap;html=1;" vertex="1" parent="1">
          <mxGeometry x="22.5" y="1242" width="67" height="33.5" as="geometry" />
        </mxCell>
        <mxCell id="r4QJUcsgO05k440xnUTR-31" value="&lt;u&gt;id&lt;/u&gt;" style="ellipse;whiteSpace=wrap;html=1;" vertex="1" parent="1">
          <mxGeometry x="575" y="830" width="70" height="30" as="geometry" />
        </mxCell>
        <mxCell id="r4QJUcsgO05k440xnUTR-32" value="phone" style="ellipse;whiteSpace=wrap;html=1;" vertex="1" parent="1">
          <mxGeometry x="580" y="800" width="70" height="30" as="geometry" />
        </mxCell>
        <mxCell id="r4QJUcsgO05k440xnUTR-33" value="shop" style="ellipse;whiteSpace=wrap;html=1;" vertex="1" parent="1">
          <mxGeometry x="590" y="770" width="70" height="30" as="geometry" />
        </mxCell>
        <mxCell id="r4QJUcsgO05k440xnUTR-34" value="wesbite" style="ellipse;whiteSpace=wrap;html=1;" vertex="1" parent="1">
          <mxGeometry x="590" y="740" width="70" height="30" as="geometry" />
        </mxCell>
        <mxCell id="r4QJUcsgO05k440xnUTR-35" value="address" style="ellipse;whiteSpace=wrap;html=1;" vertex="1" parent="1">
          <mxGeometry x="580" y="710" width="70" height="30" as="geometry" />
        </mxCell>
        <mxCell id="r4QJUcsgO05k440xnUTR-36" value="area" style="ellipse;whiteSpace=wrap;html=1;" vertex="1" parent="1">
          <mxGeometry x="566" y="680" width="70" height="30" as="geometry" />
        </mxCell>
        <mxCell id="r4QJUcsgO05k440xnUTR-41" style="edgeStyle=none;rounded=0;orthogonalLoop=1;jettySize=auto;html=1;exitX=1;exitY=0.5;exitDx=0;exitDy=0;entryX=0;entryY=0.5;entryDx=0;entryDy=0;endArrow=none;endFill=0;" edge="1" parent="1" source="5jvego66JOtNKPKq_Y0C-90" target="r4QJUcsgO05k440xnUTR-35">
          <mxGeometry relative="1" as="geometry" />
        </mxCell>
        <mxCell id="r4QJUcsgO05k440xnUTR-42" style="edgeStyle=none;rounded=0;orthogonalLoop=1;jettySize=auto;html=1;exitX=1;exitY=0.5;exitDx=0;exitDy=0;entryX=0;entryY=0.5;entryDx=0;entryDy=0;endArrow=none;endFill=0;" edge="1" parent="1" source="5jvego66JOtNKPKq_Y0C-90" target="r4QJUcsgO05k440xnUTR-36">
          <mxGeometry relative="1" as="geometry" />
        </mxCell>
        <mxCell id="r4QJUcsgO05k440xnUTR-43" value="&lt;u&gt;id&lt;/u&gt;" style="ellipse;whiteSpace=wrap;html=1;" vertex="1" parent="1">
          <mxGeometry x="381" y="690" width="70" height="30" as="geometry" />
        </mxCell>
        <mxCell id="r4QJUcsgO05k440xnUTR-44" value="name" style="ellipse;whiteSpace=wrap;html=1;" vertex="1" parent="1">
          <mxGeometry x="350" y="670" width="70" height="30" as="geometry" />
        </mxCell>
        <mxCell id="r4QJUcsgO05k440xnUTR-45" value="email" style="ellipse;whiteSpace=wrap;html=1;" vertex="1" parent="1">
          <mxGeometry x="315" y="650" width="70" height="30" as="geometry" />
        </mxCell>
        <mxCell id="r4QJUcsgO05k440xnUTR-47" value="address" style="ellipse;whiteSpace=wrap;html=1;" vertex="1" parent="1">
          <mxGeometry x="221" y="680" width="70" height="30" as="geometry" />
        </mxCell>
        <mxCell id="r4QJUcsgO05k440xnUTR-48" value="phone" style="ellipse;whiteSpace=wrap;html=1;" vertex="1" parent="1">
          <mxGeometry x="265" y="659" width="70" height="30" as="geometry" />
        </mxCell>
        <mxCell id="r4QJUcsgO05k440xnUTR-51" style="edgeStyle=none;rounded=0;orthogonalLoop=1;jettySize=auto;html=1;exitX=0.5;exitY=0;exitDx=0;exitDy=0;entryX=0.386;entryY=0.967;entryDx=0;entryDy=0;entryPerimeter=0;endArrow=none;endFill=0;" edge="1" parent="1" source="5jvego66JOtNKPKq_Y0C-74" target="r4QJUcsgO05k440xnUTR-45">
          <mxGeometry relative="1" as="geometry" />
        </mxCell>
        <mxCell id="r4QJUcsgO05k440xnUTR-56" value="phone" style="ellipse;whiteSpace=wrap;html=1;" vertex="1" parent="1">
          <mxGeometry x="53" y="800" width="70" height="30" as="geometry" />
        </mxCell>
        <mxCell id="r4QJUcsgO05k440xnUTR-57" value="type" style="ellipse;whiteSpace=wrap;html=1;" vertex="1" parent="1">
          <mxGeometry x="53" y="830" width="70" height="30" as="geometry" />
        </mxCell>
        <mxCell id="r4QJUcsgO05k440xnUTR-63" style="edgeStyle=orthogonalEdgeStyle;rounded=0;orthogonalLoop=1;jettySize=auto;html=1;exitX=0.5;exitY=0;exitDx=0;exitDy=0;entryX=0.25;entryY=1;entryDx=0;entryDy=0;endArrow=ERone;endFill=0;" edge="1" parent="1" source="5jvego66JOtNKPKq_Y0C-124" target="5jvego66JOtNKPKq_Y0C-90">
          <mxGeometry relative="1" as="geometry" />
        </mxCell>
        <mxCell id="r4QJUcsgO05k440xnUTR-68" style="edgeStyle=orthogonalEdgeStyle;rounded=0;orthogonalLoop=1;jettySize=auto;html=1;exitX=0.5;exitY=1;exitDx=0;exitDy=0;endArrow=ERoneToMany;endFill=0;" edge="1" parent="1" source="r4QJUcsgO05k440xnUTR-66" target="5jvego66JOtNKPKq_Y0C-52">
          <mxGeometry relative="1" as="geometry" />
        </mxCell>
        <mxCell id="r4QJUcsgO05k440xnUTR-71" style="edgeStyle=orthogonalEdgeStyle;rounded=0;orthogonalLoop=1;jettySize=auto;html=1;exitX=0.5;exitY=0;exitDx=0;exitDy=0;endArrow=ERone;endFill=0;" edge="1" parent="1" source="r4QJUcsgO05k440xnUTR-66" target="5jvego66JOtNKPKq_Y0C-90">
          <mxGeometry relative="1" as="geometry" />
        </mxCell>
        <mxCell id="r4QJUcsgO05k440xnUTR-66" value="created" style="rhombus;whiteSpace=wrap;html=1;" vertex="1" parent="1">
          <mxGeometry x="414" y="887" width="70" height="40" as="geometry" />
        </mxCell>
        <mxCell id="r4QJUcsgO05k440xnUTR-75" style="edgeStyle=orthogonalEdgeStyle;rounded=0;orthogonalLoop=1;jettySize=auto;html=1;exitX=0.5;exitY=1;exitDx=0;exitDy=0;entryX=0;entryY=0.5;entryDx=0;entryDy=0;endArrow=ERoneToMany;endFill=0;" edge="1" parent="1" source="r4QJUcsgO05k440xnUTR-72" target="5jvego66JOtNKPKq_Y0C-52">
          <mxGeometry relative="1" as="geometry">
            <Array as="points">
              <mxPoint x="337" y="1019" />
              <mxPoint x="381" y="1019" />
            </Array>
          </mxGeometry>
        </mxCell>
        <mxCell id="r4QJUcsgO05k440xnUTR-76" style="edgeStyle=orthogonalEdgeStyle;rounded=0;orthogonalLoop=1;jettySize=auto;html=1;exitX=0.5;exitY=0;exitDx=0;exitDy=0;entryX=0.75;entryY=1;entryDx=0;entryDy=0;endArrow=ERone;endFill=0;" edge="1" parent="1" source="r4QJUcsgO05k440xnUTR-72" target="5jvego66JOtNKPKq_Y0C-74">
          <mxGeometry relative="1" as="geometry">
            <Array as="points">
              <mxPoint x="337" y="940" />
              <mxPoint x="370" y="940" />
            </Array>
          </mxGeometry>
        </mxCell>
        <mxCell id="r4QJUcsgO05k440xnUTR-72" value="customer" style="rhombus;whiteSpace=wrap;html=1;" vertex="1" parent="1">
          <mxGeometry x="302" y="959" width="70" height="40" as="geometry" />
        </mxCell>
        <mxCell id="r4QJUcsgO05k440xnUTR-79" value="hub" style="rhombus;whiteSpace=wrap;html=1;" vertex="1" parent="1">
          <mxGeometry x="246" y="1100" width="64" height="40" as="geometry" />
        </mxCell>
        <mxCell id="r4QJUcsgO05k440xnUTR-82" style="edgeStyle=orthogonalEdgeStyle;rounded=0;orthogonalLoop=1;jettySize=auto;html=1;exitX=0.5;exitY=1;exitDx=0;exitDy=0;endArrow=ERone;endFill=0;" edge="1" parent="1" source="r4QJUcsgO05k440xnUTR-79">
          <mxGeometry relative="1" as="geometry">
            <mxPoint x="380" y="1240" as="targetPoint" />
          </mxGeometry>
        </mxCell>
        <mxCell id="r4QJUcsgO05k440xnUTR-88" style="edgeStyle=orthogonalEdgeStyle;rounded=0;orthogonalLoop=1;jettySize=auto;html=1;exitX=0.5;exitY=1;exitDx=0;exitDy=0;endArrow=ERone;endFill=0;" edge="1" parent="1" source="r4QJUcsgO05k440xnUTR-84" target="5jvego66JOtNKPKq_Y0C-80">
          <mxGeometry relative="1" as="geometry">
            <Array as="points">
              <mxPoint x="361" y="1160" />
              <mxPoint x="398" y="1160" />
            </Array>
          </mxGeometry>
        </mxCell>
        <mxCell id="r4QJUcsgO05k440xnUTR-84" value="destination" style="rhombus;whiteSpace=wrap;html=1;" vertex="1" parent="1">
          <mxGeometry x="321" y="1100" width="79" height="40" as="geometry" />
        </mxCell>
        <mxCell id="r4QJUcsgO05k440xnUTR-87" style="edgeStyle=orthogonalEdgeStyle;rounded=0;orthogonalLoop=1;jettySize=auto;html=1;exitX=0.5;exitY=0;exitDx=0;exitDy=0;entryX=0.125;entryY=0.975;entryDx=0;entryDy=0;entryPerimeter=0;endArrow=ERoneToMany;endFill=0;" edge="1" parent="1" source="r4QJUcsgO05k440xnUTR-84" target="5jvego66JOtNKPKq_Y0C-52">
          <mxGeometry relative="1" as="geometry" />
        </mxCell>
      </root>
    </mxGraphModel>
  </diagram>
</mxfile>
